<?xml version="1.0" standalone="no"?>
<!DOCTYPE svg PUBLIC "-//W3C//DTD SVG 20010904//EN"
 "http://www.w3.org/TR/2001/REC-SVG-20010904/DTD/svg10.dtd">
<svg version="1.0" xmlns="http://www.w3.org/2000/svg"
 width="243.000000pt" height="365.000000pt" viewBox="0 0 243.000000 365.000000"
 preserveAspectRatio="xMidYMid meet">

<g transform="translate(0.000000,365.000000) scale(0.100000,-0.100000)"
fill="#000000" stroke="none">
<path d="M0 1825 l0 -1825 1215 0 1215 0 0 1825 0 1825 -1215 0 -1215 0 0
-1825z m281 1628 c5 -53 -1 -103 -12 -103 -5 0 -9 32 -9 70 0 74 15 97 21 33z
m123 15 c10 -17 -7 -48 -26 -48 -6 0 -5 7 3 16 10 13 10 19 0 36 -10 16 -10
19 0 16 7 -2 17 -11 23 -20z m607 -15 c5 -53 -1 -103 -12 -103 -5 0 -9 32 -9
70 0 74 15 97 21 33z m127 8 c2 -13 -2 -28 -10 -32 -20 -13 -34 -11 -20 3 16
16 15 45 0 52 -7 3 -4 5 7 3 13 -1 21 -11 23 -26z m-651 -78 c-2 -21 -4 -6 -4
32 0 39 2 55 4 38 2 -18 2 -50 0 -70z m87 71 c-20 -19 -24 -31 -19 -52 3 -15
13 -33 22 -39 9 -7 13 -13 8 -13 -19 0 -45 35 -45 62 0 27 30 68 50 68 5 0 -2
-11 -16 -26z m177 -11 c5 -51 0 -93 -12 -93 -5 0 -9 29 -9 65 0 70 16 90 21
28z m99 33 c0 -2 -8 -10 -17 -17 -16 -13 -17 -12 -4 4 13 16 21 21 21 13z
m379 -61 c-1 -36 -5 -65 -9 -65 -5 0 -8 29 -9 65 0 36 4 65 9 65 6 0 10 -28 9
-65z m181 45 c26 -26 26 -72 0 -95 -11 -10 -23 -15 -27 -12 -3 4 -1 7 5 7 13
0 27 38 23 65 -1 11 -11 28 -23 38 -11 9 -15 17 -9 17 6 0 20 -9 31 -20z m188
8 c18 -18 14 -46 -8 -53 -24 -8 -25 -18 -5 -35 8 -7 15 -17 15 -23 0 -6 -14 2
-30 18 l-31 30 26 8 c17 6 25 16 25 33 0 22 -4 24 -45 24 l-45 0 0 -60 c0 -33
-4 -60 -10 -60 -6 0 -10 28 -10 65 l0 65 53 0 c29 0 58 -5 65 -12z m129 5
l-39 -4 4 -60 c1 -32 0 -59 -4 -59 -5 0 -8 29 -8 65 l0 65 43 -2 42 -1 -38 -4z
m193 -5 c0 -7 11 -37 25 -65 13 -29 20 -53 15 -53 -5 0 -12 9 -15 20 -5 15
-16 20 -48 22 l-42 1 36 4 c36 4 37 5 26 34 -6 16 -15 29 -19 29 -4 0 -8 5 -8
10 0 6 7 10 15 10 8 0 15 -6 15 -12z m177 -45 l48 -56 6 59 6 59 1 -67 c1 -38
-2 -68 -7 -68 -6 0 -31 25 -58 56 l-48 56 -6 -59 -6 -58 -1 68 c-1 37 2 67 7
67 5 0 31 -25 58 -57z m-797 28 c-15 -29 -12 -62 8 -84 16 -19 16 -20 -4 -9
-37 19 -45 63 -17 94 21 23 26 23 13 -1z m498 7 c17 -17 15 -73 -3 -88 -18
-15 -19 -7 -2 20 10 17 9 26 -5 50 -17 30 -12 40 10 18z m-945 -108 c-3 -3
-18 11 -35 30 -16 19 -34 34 -40 32 -7 -2 -6 3 1 12 12 14 17 10 46 -27 18
-23 31 -44 28 -47z m-476 38 c32 -46 18 -49 -22 -5 -26 28 -30 37 -17 37 9 0
27 -15 39 -32z m732 1 c35 -44 16 -49 -24 -6 -25 28 -30 37 -17 36 9 0 28 -14
41 -30z m-482 -45 c-3 -3 -12 -4 -19 -1 -8 3 -5 6 6 6 11 1 17 -2 13 -5z m736
-1 c-7 -2 -19 -2 -25 0 -7 3 -2 5 12 5 14 0 19 -2 13 -5z m176 -133 c-1 -3 8
-23 20 -45 14 -27 21 -58 21 -94 0 -46 4 -60 28 -84 17 -19 21 -28 11 -24 -10
3 -35 11 -57 18 l-41 12 16 31 c25 47 22 128 -6 167 -19 25 -20 30 -6 27 9 -1
15 -5 14 -8z m230 -27 c-23 -45 -24 -101 -4 -150 8 -20 14 -37 13 -38 -2 -1
-27 -10 -55 -19 l-53 -18 0 -44 c0 -34 4 -44 16 -44 9 0 31 -15 50 -34 31 -31
34 -40 34 -90 0 -31 -4 -56 -9 -56 -5 0 -14 -13 -19 -29 -14 -40 -64 -65 -115
-58 -54 7 -89 36 -105 84 -24 74 17 164 81 181 29 8 32 12 34 53 7 171 10 209
16 215 4 4 7 -24 8 -62 0 -38 4 -77 7 -87 7 -15 9 -16 28 -2 17 11 22 28 26
82 3 38 11 80 19 93 8 14 15 30 15 35 1 6 2 13 3 18 0 4 7 7 15 7 11 0 10 -8
-5 -37z m-1004 -18 c27 -26 32 -60 14 -98 -16 -35 -89 -65 -89 -36 0 5 4 7 10
4 14 -9 60 40 60 64 0 11 -5 32 -12 46 -10 22 -17 26 -47 23 -33 -3 -36 -6
-41 -38 -3 -19 -4 -67 -2 -107 3 -67 5 -73 25 -74 12 -1 2 -5 -23 -9 -25 -4
-49 -4 -54 1 -6 6 -4 9 6 9 12 0 16 18 20 98 3 53 9 105 13 115 6 15 4 17 -19
11 -16 -4 -26 -2 -26 5 0 7 26 11 70 11 62 0 74 -3 95 -25z m251 -14 c-7 -45
-26 -65 -26 -28 0 30 -24 47 -68 47 -33 0 -59 -25 -71 -66 -5 -16 -13 -28 -20
-26 -6 1 -11 -10 -10 -25 0 -27 1 -27 9 -5 8 19 17 22 65 22 30 0 55 -4 55
-10 0 -5 -25 -10 -55 -10 l-55 0 11 -27 c25 -68 80 -90 142 -59 15 8 27 11 27
6 0 -14 -55 -40 -83 -40 -92 0 -151 87 -118 172 5 13 23 38 40 56 29 31 33 32
97 30 l66 -3 -6 -34z m205 10 c28 -34 24 -65 -12 -95 l-30 -26 55 -77 c31 -42
54 -78 52 -81 -2 -2 -24 18 -49 45 -60 64 -100 113 -96 116 2 1 13 7 24 13 11
6 26 22 34 36 13 23 13 29 -3 52 -14 23 -23 27 -54 24 l-37 -3 -3 -103 c-3
-99 -2 -103 20 -111 22 -8 22 -9 -8 -15 -16 -4 -41 -2 -55 3 -17 7 -19 10 -6
10 15 1 17 13 17 111 0 93 -2 110 -16 110 -8 0 -12 5 -8 11 4 7 34 10 81 7 64
-3 78 -7 94 -27z m265 9 c-18 -67 -16 -65 -37 -31 -15 25 -25 31 -53 31 -19 0
-42 -3 -51 -6 -45 -18 -61 -131 -25 -177 27 -34 79 -44 121 -23 44 22 49 12 8
-14 -49 -30 -111 -23 -153 19 -28 28 -31 37 -30 86 3 97 49 135 161 132 50 -2
62 -5 59 -17z m424 -52 c0 -33 -18 -19 -22 18 -4 32 -3 34 9 18 7 -10 13 -26
13 -36z m30 -328 c57 -71 105 -130 107 -130 1 0 3 52 3 115 0 111 -1 116 -22
125 -18 7 -9 9 36 9 l60 1 -22 -20 c-20 -19 -22 -31 -23 -143 -1 -67 0 -129 1
-137 1 -8 -21 13 -50 47 -28 34 -61 64 -73 67 -17 5 -19 8 -9 15 11 6 8 14
-12 37 -16 18 -25 23 -26 15 0 -10 -10 -5 -29 13 l-29 28 -8 -48 c-5 -27 -8
-81 -9 -121 l0 -71 -30 -5 c-36 -5 -46 0 -19 10 10 3 22 11 26 17 4 6 8 77 8
159 0 81 4 147 8 147 5 0 55 -58 112 -130z m-1480 111 c0 -5 -9 -11 -20 -14
-19 -5 -20 -14 -20 -150 0 -160 -8 -196 -53 -244 -47 -50 -64 -41 -25 13 l33
46 4 165 c3 160 3 164 -18 170 -41 11 -20 23 39 23 33 0 60 -4 60 -9z m201
-105 c12 -27 19 -64 19 -108 0 -53 4 -69 18 -77 13 -8 4 -10 -38 -10 -43 0
-50 2 -32 9 17 7 22 17 22 45 l0 35 -65 0 -65 0 0 -39 c0 -29 5 -41 18 -44 9
-3 -8 -5 -38 -6 -42 0 -51 2 -37 10 13 8 17 23 17 67 0 69 9 104 23 95 6 -4 8
0 5 8 -8 21 14 57 48 78 28 18 30 18 58 -2 15 -11 37 -38 47 -61z m230 73 c30
-9 42 -9 54 1 19 16 20 2 3 -55 l-11 -40 -8 31 c-15 54 -103 70 -142 26 -25
-28 -38 -93 -26 -135 16 -59 45 -79 104 -75 28 3 59 8 70 13 20 8 20 8 1 -13
-24 -28 -72 -37 -123 -23 -72 20 -111 87 -94 164 14 59 58 99 130 116 2 1 21
-4 42 -10z m534 -3 c20 -9 35 -22 35 -31 0 -9 -4 -13 -10 -10 -6 3 -7 -1 -4
-9 4 -10 1 -16 -9 -16 -10 0 -13 7 -10 20 11 43 -88 53 -102 9 -8 -26 16 -54
70 -81 22 -11 48 -27 58 -36 23 -20 22 -67 -3 -92 -35 -35 -159 -23 -174 16
-8 20 3 43 25 55 17 9 19 7 13 -15 -12 -51 71 -89 111 -50 27 28 14 57 -37 84
-26 14 -59 37 -73 50 -28 26 -33 67 -10 76 8 4 13 10 10 14 -5 8 37 28 63 29
7 1 28 -6 47 -13z m-346 -3 c-13 -3 -17 -25 -22 -113 -7 -118 -4 -136 21 -143
10 -3 -8 -5 -38 -6 -42 0 -51 2 -37 10 15 9 17 26 17 124 0 98 -2 115 -17 124
-14 8 -5 10 37 10 30 -1 48 -3 39 -6z m134 -8 c-12 -8 -38 -38 -58 -65 l-37
-51 63 -82 c34 -45 67 -88 72 -94 6 -9 6 -13 -1 -13 -5 0 -47 40 -92 90 l-81
89 40 54 c43 57 49 72 29 80 -7 3 9 6 37 6 47 1 48 0 28 -14z m53 -220 c4 -17
21 -32 55 -47 32 -15 50 -30 54 -46 6 -25 -4 -46 -12 -24 -3 6 -9 9 -15 6 -6
-4 -9 -1 -6 7 6 17 -35 52 -84 72 -20 8 -41 25 -48 36 -10 19 -8 21 19 21 24
0 32 -5 37 -25z m-127 -48 c-19 -13 -36 -22 -39 -20 -8 7 41 43 58 43 8 0 0
-10 -19 -23z m738 7 c-3 -3 -12 -4 -19 -1 -8 3 -5 6 6 6 11 1 17 -2 13 -5z
m-567 -44 c6 -11 9 -20 7 -20 -2 0 -12 9 -22 20 -10 11 -13 20 -7 20 6 0 16
-9 22 -20z m-400 -81 c0 -21 6 -29 23 -32 17 -3 16 -5 -8 -6 -26 -1 -32 4 -42
36 -6 21 -9 41 -6 46 9 15 33 -15 33 -44z m-412 24 c-34 -5 -37 -22 -5 -24
l22 -2 -22 -4 c-32 -6 -29 -21 5 -26 22 -3 20 -4 -10 -6 -37 -1 -38 0 -38 34
0 34 1 35 38 34 30 -2 32 -3 10 -6z m147 -28 c0 -26 -3 -30 -29 -30 -36 0 -56
26 -36 50 8 9 24 15 39 13 22 -2 26 -8 26 -33z m95 26 c0 -4 -11 -6 -25 -3
-15 2 -25 0 -25 -7 0 -6 11 -11 25 -11 15 0 25 -6 25 -15 0 -18 -34 -37 -54
-29 -25 9 -19 22 8 17 13 -3 27 0 30 6 5 7 -2 11 -18 11 -27 0 -41 14 -31 30
8 12 65 13 65 1z m128 -17 c4 -28 -22 -48 -53 -40 -18 5 -25 13 -25 30 0 27
13 36 50 33 17 -1 26 -9 28 -23z m112 -9 c0 -19 -4 -35 -10 -35 -5 0 -10 16
-10 35 0 19 5 35 10 35 6 0 10 -16 10 -35z m48 15 c7 -12 17 -18 22 -15 12 8
13 -5 1 -24 -7 -11 -12 -9 -22 10 l-13 24 -7 -25 c-6 -22 -7 -20 -8 13 -1 41
8 47 27 17z m51 -17 c-1 -38 -1 -38 -9 -9 -8 27 -6 46 6 46 2 0 4 -17 3 -37z
m99 20 c-2 -10 -13 -19 -26 -21 -12 -2 -22 -10 -22 -18 0 -8 -4 -14 -10 -14
-5 0 -10 16 -10 35 0 33 2 35 36 35 28 0 35 -3 32 -17z m42 -18 c0 -19 -4 -35
-10 -35 -5 0 -10 16 -10 35 0 19 5 35 10 35 6 0 10 -16 10 -35z m76 -3 c7 -18
9 -32 4 -32 -6 0 -10 5 -10 10 0 6 -9 10 -20 10 -11 0 -20 -5 -20 -12 0 -6 -2
-9 -5 -7 -8 8 19 69 28 66 5 -1 15 -17 23 -35z m80 11 l18 -28 7 30 7 30 1
-32 c1 -40 -11 -48 -35 -22 l-19 21 -6 -24 c-5 -19 -6 -17 -10 15 -6 45 10 49
37 10z m125 11 c9 -11 10 -20 2 -32 -14 -24 -54 -27 -70 -7 -28 40 36 77 68
39z m67 9 c-16 -2 -28 -8 -28 -13 0 -5 12 -10 28 -12 37 -4 36 -32 -2 -36 -16
-2 -33 1 -38 6 -5 5 3 7 22 4 18 -3 30 0 30 7 0 6 -11 11 -24 11 -14 0 -28 5
-31 10 -11 18 5 30 38 29 30 -2 31 -2 5 -6z m270 -48 c-3 -3 -9 2 -12 12 -6
14 -5 15 5 6 7 -7 10 -15 7 -18z m92 -21 c4 -19 11 -29 23 -28 10 1 17 -5 17
-16 0 -16 -8 -18 -57 -17 -69 2 -78 18 -36 65 33 37 46 36 53 -4z m-1270 -29
c-22 -24 -16 -37 7 -14 6 6 17 8 23 4 8 -5 1 -12 -20 -21 -39 -17 -43 -17 -35
-4 3 6 -1 10 -9 10 -8 0 -18 4 -21 10 -3 5 0 7 8 4 7 -2 25 4 38 15 33 28 37
26 9 -4z m1175 -15 c-3 -5 -14 -10 -23 -10 -15 0 -15 2 -2 10 20 13 33 13 25
0z m-425 -20 c-20 -13 -53 -13 -45 0 3 6 18 10 33 10 21 0 24 -2 12 -10z
m-832 -57 c-9 -10 -18 -27 -21 -38 -4 -19 -5 -18 -6 2 0 12 6 29 15 37 21 22
31 20 12 -1z m-195 -95 c11 -9 14 -18 8 -27 -12 -19 -41 -6 -41 19 0 23 9 25
33 8z m590 -17 c18 -16 60 -41 92 -56 l60 -26 14 20 c20 31 49 27 53 -6 6 -54
72 -61 123 -13 11 10 33 22 48 26 16 3 49 24 74 45 24 22 51 39 58 39 22 0 37
-38 33 -81 -2 -28 0 -39 10 -39 8 0 16 -9 19 -20 5 -19 6 -19 37 4 17 13 41
27 54 31 32 9 72 -2 72 -20 0 -12 9 -9 38 10 61 41 83 48 101 31 13 -14 11
-15 -22 -14 -20 1 -40 -2 -44 -5 -3 -4 5 -7 18 -7 38 0 85 -71 62 -93 -3 -4
-15 5 -26 20 -13 19 -17 21 -12 8 5 -16 4 -18 -6 -7 -15 14 -33 16 -24 2 3 -5
0 -7 -9 -4 -9 3 -19 -3 -26 -16 -6 -12 -30 -29 -53 -39 -23 -10 -50 -28 -61
-39 -10 -12 -23 -19 -27 -16 -5 3 -9 -4 -9 -15 0 -12 4 -21 9 -21 5 0 11 -9
14 -19 7 -28 40 -17 72 24 26 35 32 51 15 40 -18 -11 -10 12 11 31 14 12 36
19 64 19 24 0 42 -1 39 -4 -2 -2 1 -10 7 -18 20 -23 -13 -61 -49 -55 -21 3
-37 -3 -58 -21 l-29 -25 28 5 c25 5 27 3 27 -28 0 -19 3 -44 6 -57 5 -18 3
-21 -11 -16 -9 4 -20 16 -25 28 -7 18 -8 16 -7 -11 1 -17 5 -29 8 -27 4 2 12
-2 18 -9 8 -10 7 -19 -4 -33 -11 -15 -15 -16 -15 -4 -1 8 -6 4 -12 -10 -7 -17
-12 -20 -15 -11 -4 11 -7 11 -13 0 -17 -26 -36 -18 -33 15 2 21 1 26 -5 13 -6
-15 -13 -12 -50 29 -24 25 -41 49 -37 52 3 4 10 0 15 -8 17 -26 12 32 -5 64
-8 15 -12 33 -9 40 3 6 -2 2 -10 -8 -9 -11 -16 -27 -15 -35 0 -13 2 -12 7 2 6
15 9 13 19 -13 6 -16 7 -30 2 -30 -5 0 -9 6 -9 13 0 7 -9 13 -21 13 -19 0 -19
-1 -3 -13 10 -7 13 -13 6 -13 -11 0 -42 38 -42 52 0 4 6 5 14 2 12 -5 14 6 7
50 0 4 -7 6 -15 3 -8 -3 -17 -1 -20 6 -2 7 -5 -2 -5 -18 -1 -37 -17 -55 -46
-55 -25 0 -49 -24 -60 -58 -3 -12 -10 -20 -14 -17 -13 8 -31 -69 -31 -133 0
-33 5 -64 10 -67 16 -10 12 -22 -16 -50 -14 -14 -24 -28 -21 -31 2 -3 19 12
36 32 25 28 30 39 20 50 -9 11 -8 14 5 14 14 0 16 -7 11 -42 -6 -52 4 -68 66
-100 45 -24 58 -50 27 -56 -10 -2 -18 2 -18 8 0 6 -11 22 -25 35 -38 39 -97
35 -141 -9 -45 -45 -46 -85 -4 -123 23 -20 27 -29 19 -40 -25 -30 -76 -3 -62
32 4 13 3 16 -5 11 -7 -4 -12 -22 -12 -40 0 -32 -2 -34 -72 -59 -85 -30 -128
-42 -145 -39 -6 1 -15 -3 -19 -9 -11 -18 64 -4 170 32 49 16 91 28 93 26 6 -7
-115 -53 -174 -67 -67 -15 -213 -28 -207 -18 3 4 0 8 -5 8 -6 0 -11 -5 -11
-11 0 -6 -7 -8 -17 -4 -15 5 -16 4 -5 -7 19 -19 164 -16 237 6 33 10 93 33
134 52 41 19 76 32 78 30 7 -7 -162 -84 -232 -106 -77 -23 -201 -29 -247 -11
-23 9 -28 8 -28 -5 0 -8 5 -12 10 -9 6 4 17 1 26 -5 22 -19 185 -7 269 20 97
30 234 100 252 127 9 14 13 34 10 50 -20 93 -20 91 3 98 18 6 20 9 9 16 -10 6
-2 9 22 9 42 0 72 -25 48 -41 -8 -5 -9 -9 -3 -9 6 0 25 -23 44 -51 18 -28 40
-53 49 -57 9 -3 21 -13 27 -21 10 -13 14 -13 28 -2 9 7 23 11 31 7 8 -3 15 0
15 6 0 6 3 8 6 5 4 -4 20 3 37 15 l30 21 18 -24 19 -24 0 30 c0 41 30 115 46
115 8 0 14 6 15 13 0 10 2 10 6 0 6 -17 30 -16 40 1 4 7 24 16 44 20 28 5 39
2 52 -12 15 -16 15 -21 3 -37 -8 -11 -12 -25 -9 -31 2 -7 0 -15 -6 -19 -6 -3
-11 -15 -11 -26 0 -11 -7 -22 -16 -26 -15 -5 -15 -7 0 -15 23 -13 20 -36 -6
-43 -52 -15 -86 -40 -96 -69 -9 -27 -10 -25 -6 19 3 43 3 46 -6 20 -15 -45
-24 -153 -11 -135 14 20 16 16 40 -70 l21 -74 -27 -28 c-15 -16 -33 -26 -41
-23 -7 2 -11 1 -8 -3 11 -18 -86 -102 -118 -102 -9 0 -25 -9 -35 -19 -19 -19
-20 -19 -26 20 -5 29 -12 39 -25 39 -38 0 -47 -73 -11 -84 9 -3 -3 -4 -27 -2
-23 3 -55 12 -69 22 -27 17 -27 17 -5 25 24 9 29 31 10 47 -15 12 -68 4 -68
-9 0 -5 -7 -9 -15 -9 -8 0 -15 5 -15 10 0 6 -11 10 -25 10 -16 0 -25 -6 -25
-16 0 -8 4 -13 9 -10 5 4 7 -2 4 -13 -6 -25 21 -78 66 -124 43 -46 80 -67 116
-67 17 0 25 -5 22 -12 -10 -32 -118 19 -161 75 -14 18 -34 53 -45 77 -17 37
-20 40 -19 18 1 -16 5 -28 9 -28 10 0 30 -51 23 -61 -3 -5 -2 -8 3 -7 4 2 30
-18 56 -43 l47 -47 -42 -18 c-31 -13 -77 -19 -163 -22 -105 -3 -127 -1 -177
18 -32 12 -58 24 -58 26 0 3 15 18 34 35 39 33 96 118 95 140 0 8 -4 4 -9 -9
-33 -81 -124 -162 -183 -162 -41 0 -32 17 13 24 50 8 120 69 150 130 25 52 25
66 3 67 -17 1 -17 2 0 6 23 6 22 23 -3 23 -11 0 -20 -4 -20 -10 0 -5 -9 -10
-20 -10 -11 0 -20 5 -20 10 0 15 -46 12 -60 -5 -6 -8 -8 -20 -4 -27 5 -9 4
-10 -4 -3 -5 6 -12 19 -15 30 -4 17 -12 -45 -8 -67 1 -10 -43 -21 -66 -16 -15
3 -18 12 -16 53 l2 50 -11 -37 c-12 -41 -19 -45 -40 -25 -7 8 -18 12 -23 10
-20 -6 -89 43 -104 74 -9 18 -22 31 -28 28 -7 -2 -12 1 -10 7 1 6 -8 17 -21
23 -35 18 -35 18 -11 100 21 71 24 76 37 59 13 -17 14 -16 8 16 -13 78 -54
234 -56 215 -2 -17 -3 -17 -7 -2 -5 18 -43 25 -43 7 0 -5 7 -7 15 -4 8 4 15 1
15 -5 0 -6 -6 -11 -12 -11 -9 -1 -8 -5 3 -13 18 -14 43 -57 36 -63 -2 -3 -10
2 -17 11 -7 8 -22 15 -34 15 -11 0 -28 5 -36 10 -12 8 -13 13 -3 29 7 11 9 23
4 26 -5 3 -13 20 -17 37 -3 18 -14 43 -22 56 -13 20 -13 25 -1 33 8 5 24 9 35
9 26 0 42 -30 16 -31 -12 0 -11 -3 6 -10 31 -12 52 -34 52 -53 0 -22 26 -20
36 2 12 26 11 67 -2 80 -9 8 -13 6 -17 -8 -3 -11 0 -21 7 -23 6 -2 8 -7 5 -11
-10 -11 -40 19 -43 45 -3 36 -15 51 -35 45 -9 -4 -6 2 8 14 19 16 22 23 12 33
-9 9 -14 9 -21 -3 -7 -11 -10 -11 -10 -2 0 15 15 22 55 25 25 2 30 -2 30 -23
0 -14 -4 -28 -10 -32 -6 -5 5 -21 27 -40 39 -34 68 -90 68 -130 0 -15 11 -1
30 40 25 53 32 62 47 54 18 -11 50 -3 101 23 27 14 36 15 48 4 8 -7 13 -21 11
-31 -8 -28 28 -23 52 8 58 74 -24 140 -97 79 -17 -14 -34 -25 -40 -25 -6 0
-12 -5 -14 -12 -2 -6 -10 -8 -16 -4 -9 5 0 20 28 49 48 50 57 87 35 146 -13
39 -14 47 -1 59 20 20 43 9 67 -33 12 -19 29 -35 38 -35 23 0 41 -19 34 -36
-6 -17 -35 -18 -51 -2 -9 9 -12 8 -12 -4 0 -17 25 -48 39 -48 13 0 62 56 55
63 -4 3 1 18 10 31 9 14 16 45 17 68 0 33 2 38 9 23 8 -20 9 -20 9 1 1 11 -8
29 -19 39 -11 10 -20 29 -20 41 0 16 -5 22 -14 18 -9 -3 -16 5 -21 23 -3 15
-14 36 -23 47 -18 19 -23 95 -10 152 6 29 5 31 -32 40 -35 10 -39 9 -49 -12
-7 -17 -7 -24 2 -27 8 -3 5 -10 -8 -20 -11 -9 -22 -11 -23 -6 -3 6 -10 5 -18
-2 -8 -6 -14 -7 -14 -2 0 19 23 78 36 94 10 11 11 24 3 53 -13 48 4 106 31
106 11 0 34 -13 53 -29z m-208 -179 c0 -28 -2 -30 -12 -15 -7 9 -13 33 -13 52
1 33 2 34 13 16 7 -11 12 -35 12 -53z m70 -58 c16 -1 35 -11 42 -21 6 -10 19
-26 29 -35 25 -26 8 -41 -41 -34 -47 8 -73 -8 -93 -56 -9 -23 -9 -28 2 -28 7
0 19 7 26 15 7 8 22 15 34 15 25 0 71 -29 47 -30 -10 0 -7 -8 10 -26 l24 -26
-28 -24 c-29 -25 -81 -31 -122 -15 -32 13 -148 -41 -164 -76 -6 -13 -18 -23
-26 -23 -9 0 -13 5 -9 11 4 8 0 8 -15 0 -38 -21 -58 13 -24 40 15 13 16 11 10
-10 -5 -22 -3 -22 28 9 19 18 32 37 29 42 -9 14 -52 9 -87 -12 -31 -18 -67
-19 -67 -1 0 36 25 83 51 97 49 25 123 85 131 105 4 11 14 19 22 19 8 0 17 8
21 19 6 21 101 62 125 53 8 -2 28 -6 45 -8z m878 -41 c-9 -23 -43 -37 -57 -22
-8 9 -8 10 0 6 7 -4 23 2 35 13 14 11 18 19 11 20 -7 0 -10 5 -6 11 9 15 24
-9 17 -28z m-1291 -35 c-9 -16 -18 -24 -21 -17 -2 6 2 15 9 19 7 4 10 12 7 17
-3 5 0 10 8 10 12 0 11 -6 -3 -29z m1090 -103 c-5 -18 -6 -18 -13 5 -4 14 -7
19 -8 11 -1 -8 -3 -12 -6 -9 -3 3 -3 12 1 21 9 24 32 -2 26 -28z m42 -35 c10
-13 9 -13 -6 -1 -10 7 -17 23 -17 35 1 20 2 20 6 1 3 -11 10 -27 17 -35z m394
-114 c10 -22 8 -25 -11 -28 -18 -3 -23 -11 -27 -53 -5 -46 -7 -50 -30 -47
l-25 2 28 -22 28 -23 -25 0 c-15 0 -26 5 -26 10 0 6 -5 3 -10 -5 -9 -13 -11
-13 -20 0 -7 11 -10 11 -10 2 0 -7 10 -17 23 -22 21 -8 21 -9 -6 -9 -20 -1
-30 5 -36 22 -5 12 -5 24 -1 27 5 3 10 16 11 30 2 14 11 25 19 25 19 0 52 40
69 83 16 38 34 41 49 8z m-1576 -113 c16 -20 44 -15 76 12 36 30 68 32 82 5
10 -19 9 -20 -8 -9 -15 10 -27 7 -64 -15 -24 -14 -52 -26 -61 -26 -22 0 -47
39 -46 70 l2 25 4 -25 c3 -14 10 -31 15 -37z m1518 -83 c0 -5 -4 -10 -10 -10
-5 0 -10 5 -10 10 0 6 5 10 10 10 6 0 10 -4 10 -10z m-290 -32 c-1 -33 -23
-57 -59 -64 -17 -4 -31 -3 -31 0 0 9 72 82 83 85 4 0 7 -9 7 -21z m520 -68 c0
-5 -5 -10 -11 -10 -5 0 -7 5 -4 10 3 6 8 10 11 10 2 0 4 -4 4 -10z m-1500 -30
c0 -5 -4 -10 -10 -10 -5 0 -10 5 -10 10 0 6 5 10 10 10 6 0 10 -4 10 -10z
m1545 -100 c40 -45 -20 -109 -71 -75 -26 17 -30 44 -14 76 14 25 62 25 85 -1z
m0 -121 c4 -6 9 -37 12 -70 5 -53 4 -59 -13 -60 -17 -1 -17 -2 -2 -6 15 -4 18
-15 17 -61 -2 -83 -12 -102 -52 -102 -53 0 -57 10 -57 155 0 89 4 135 12 143
15 15 74 16 83 1z m-1800 -299 c3 -5 2 -10 -4 -10 -5 0 -13 5 -16 10 -3 6 -2
10 4 10 5 0 13 -4 16 -10z m630 -70 c-3 -5 -16 -15 -28 -21 l-22 -12 20 21
c21 22 41 30 30 12z m-415 -170 c0 -5 -7 -10 -16 -10 -8 0 -12 5 -9 10 3 6 10
10 16 10 5 0 9 -4 9 -10z m1261 -13 c-13 -13 -26 -3 -16 12 3 6 11 8 17 5 6
-4 6 -10 -1 -17z m369 -148 c0 -5 -416 -9 -1005 -9 -553 0 -1005 3 -1005 8 0
4 452 8 1005 8 590 1 1005 -2 1005 -7z m-1730 -73 c0 -2 -7 -7 -16 -10 -8 -3
-12 -2 -9 4 6 10 25 14 25 6z m1332 -41 c-2 -25 -8 -45 -13 -45 -10 0 -12 73
-2 83 14 15 18 5 15 -38z m-1569 -10 c17 -35 12 -46 -11 -23 -10 10 -17 10
-34 -1 -19 -12 -20 -11 -13 6 4 10 10 26 12 36 8 27 28 20 46 -18z m120 28
c-40 -5 -44 -22 -5 -24 l27 -2 -27 -4 c-16 -2 -28 -11 -28 -19 0 -8 -4 -14
-10 -14 -5 0 -10 16 -10 35 0 35 0 35 43 33 36 -1 38 -2 10 -5z m67 -23 c0
-25 4 -30 25 -30 21 0 25 5 25 30 0 17 5 30 10 30 12 0 13 -40 1 -58 -5 -8
-22 -12 -42 -10 -30 3 -34 7 -37 36 -2 18 1 32 7 32 6 0 11 -13 11 -30z m167
14 c3 -9 0 -20 -7 -24 -9 -6 -8 -10 6 -19 11 -6 13 -11 6 -11 -7 0 -24 7 -37
16 -23 15 -25 15 -25 0 0 -9 -4 -16 -10 -16 -5 0 -10 16 -10 35 0 33 2 35 35
35 23 0 38 -6 42 -16z m43 -19 c0 -19 -4 -35 -10 -35 -5 0 -10 16 -10 35 0 19
5 35 10 35 6 0 10 -16 10 -35z m92 0 c14 -28 15 -35 4 -35 -8 0 -16 6 -19 13
-3 9 -9 9 -27 -1 -21 -13 -22 -12 -15 5 4 10 10 26 12 36 8 27 26 20 45 -18z
m144 21 c28 -22 7 -50 -40 -54 -35 -3 -36 -2 -36 32 0 33 3 36 28 36 16 0 37
-6 48 -14z m89 -17 c9 -17 13 -34 9 -37 -4 -4 -9 -1 -11 6 -5 14 -43 16 -43 2
0 -5 -4 -10 -10 -10 -5 0 -2 16 7 35 9 19 20 35 25 35 4 0 15 -14 23 -31z
m149 15 c25 -25 4 -54 -39 -54 -33 0 -35 2 -35 35 0 32 2 35 29 35 16 0 37 -7
45 -16z m84 9 c-44 -5 -51 -22 -10 -24 l27 -2 -27 -4 c-40 -6 -34 -21 10 -26
34 -3 33 -4 -10 -5 l-48 -2 0 35 0 35 48 -2 c43 -1 44 -2 10 -5z m72 -23 c0
-25 4 -30 24 -30 20 0 26 6 30 30 6 30 6 30 4 -2 -3 -30 -6 -33 -38 -33 -32 0
-35 3 -38 33 -2 18 1 32 7 32 6 0 11 -13 11 -30z m165 20 c4 -6 -5 -7 -23 -4
-17 4 -32 1 -36 -5 -5 -7 5 -11 29 -11 29 0 36 -3 33 -17 -2 -13 -15 -19 -46
-21 -23 -2 -42 1 -42 5 0 5 16 7 36 5 26 -3 35 -1 30 7 -4 6 -17 11 -30 11
-29 0 -39 10 -25 27 13 15 65 18 74 3z m88 -25 c17 -35 12 -46 -11 -23 -10 10
-17 10 -32 0 -24 -15 -25 -10 -5 28 20 39 28 38 48 -5z m130 25 c-16 -6 -23
-18 -23 -35 0 -14 -4 -25 -9 -25 -5 0 -9 6 -8 13 1 32 -4 46 -20 50 -10 3 5 5
32 5 39 1 45 -1 28 -8z m105 -2 c9 -9 9 -15 0 -26 -9 -10 -8 -16 3 -23 12 -7
12 -9 0 -9 -8 0 -23 7 -33 16 -16 16 -18 16 -24 0 -11 -28 -24 -18 -24 19 0
33 2 35 33 35 18 0 38 -5 45 -12z m150 -10 c3 -14 -3 -18 -27 -18 -21 0 -31
-5 -31 -15 0 -8 -4 -15 -10 -15 -5 0 -10 16 -10 36 0 35 1 35 37 32 27 -2 39
-8 41 -20z m42 -7 c0 -25 5 -30 28 -34 22 -3 20 -4 -10 -6 -37 -1 -38 0 -38
34 0 19 5 35 10 35 6 0 10 -13 10 -29z m80 -6 c0 -19 -4 -35 -10 -35 -5 0 -10
16 -10 35 0 19 5 35 10 35 6 0 10 -16 10 -35z m105 25 c4 -7 -2 -9 -17 -5 -12
3 -29 1 -37 -4 -22 -14 -5 -39 31 -44 29 -4 28 -4 -6 -3 -49 1 -72 29 -42 52
23 16 62 19 71 4z m78 3 c-40 -5 -44 -22 -5 -24 l27 -2 -27 -4 c-38 -6 -35
-21 5 -26 28 -3 26 -4 -10 -5 -43 -2 -43 -2 -43 33 0 35 0 35 43 33 36 -1 38
-2 10 -5z"/>
<path d="M1581 2834 c-12 -15 -21 -35 -21 -46 0 -11 -4 -17 -8 -14 -5 3 -5
-16 -1 -42 4 -26 8 -52 8 -58 1 -6 12 -23 26 -38 32 -35 86 -36 120 -2 46 46
41 176 -8 211 -12 8 -25 15 -29 15 -12 0 -9 -95 3 -107 8 -8 8 -13 0 -17 -6
-4 -11 -18 -11 -31 0 -13 -4 -27 -10 -30 -6 -3 -10 4 -10 17 0 13 -5 29 -11
35 -8 8 -8 13 0 17 6 4 11 32 11 62 0 47 -3 54 -19 54 -11 0 -29 -12 -40 -26z"/>
<path d="M1083 3075 c0 -22 2 -30 4 -17 2 12 2 30 0 40 -3 9 -5 -1 -4 -23z"/>
<path d="M2063 2685 c0 -22 2 -30 4 -17 2 12 2 30 0 40 -3 9 -5 -1 -4 -23z"/>
<path d="M391 2848 c1 -13 5 -34 9 -48 7 -21 8 -19 9 17 1 23 -3 45 -9 48 -6
3 -10 -4 -9 -17z"/>
<path d="M390 2716 c0 -8 5 -18 10 -21 6 -3 10 1 10 9 0 8 -4 18 -10 21 -5 3
-10 -1 -10 -9z"/>
<path d="M376 2544 c-10 -25 1 -29 14 -5 6 12 7 21 1 21 -5 0 -12 -7 -15 -16z"/>
<path d="M562 2838 c-24 -27 -42 -70 -42 -104 0 -23 3 -24 66 -24 l66 0 -7 38
c-5 31 -48 112 -58 112 -2 0 -13 -10 -25 -22z"/>
<path d="M491 2664 c0 -11 3 -14 6 -6 3 7 2 16 -1 19 -3 4 -6 -2 -5 -13z"/>
<path d="M590 2465 c0 -22 4 -26 23 -23 14 2 22 10 22 23 0 13 -8 21 -22 23
-19 3 -23 -1 -23 -23z"/>
<path d="M804 2475 c-8 -20 4 -35 27 -35 14 0 19 7 19 25 0 18 -5 25 -20 25
-11 0 -23 -7 -26 -15z"/>
<path d="M1130 2480 c0 -5 9 -10 20 -10 11 0 20 5 20 10 0 6 -9 10 -20 10 -11
0 -20 -4 -20 -10z"/>
<path d="M1444 2475 c-8 -20 4 -35 27 -35 14 0 19 7 19 25 0 18 -5 25 -20 25
-11 0 -23 -7 -26 -15z"/>
<path d="M1641 2079 c-27 -25 -22 -34 14 -25 21 5 24 10 16 20 -6 7 -8 16 -4
19 17 17 -6 5 -26 -14z"/>
<path d="M1542 2040 c0 -19 2 -27 5 -17 2 9 2 25 0 35 -3 9 -5 1 -5 -18z"/>
<path d="M1519 2032 c-3 -20 -2 -29 4 -23 5 5 7 19 5 32 -3 20 -5 19 -9 -9z"/>
<path d="M1420 2011 c0 -11 4 -22 10 -26 5 -3 6 -13 3 -23 -6 -15 -5 -15 11
-2 11 8 14 16 7 18 -6 2 -11 15 -11 28 0 13 -4 24 -10 24 -5 0 -10 -9 -10 -19z"/>
<path d="M1463 2023 c-15 -5 -17 -23 -4 -23 5 0 11 7 15 15 3 8 4 15 3 14 -1
0 -8 -3 -14 -6z"/>
<path d="M1514 1978 l-19 -23 23 19 c21 18 27 26 19 26 -2 0 -12 -10 -23 -22z"/>
<path d="M1030 1965 c0 -23 37 -55 65 -55 14 0 25 4 25 8 0 12 -30 36 -62 50
-23 10 -28 9 -28 -3z m58 -26 c-2 -6 -8 -10 -13 -10 -5 0 -11 4 -13 10 -2 6 4
11 13 11 9 0 15 -5 13 -11z"/>
<path d="M1338 1959 c-43 -22 -51 -49 -15 -49 28 0 60 32 55 53 -2 13 -9 12
-40 -4z m14 -24 c0 -5 -5 -11 -11 -13 -6 -2 -11 4 -11 13 0 9 5 15 11 13 6 -2
11 -8 11 -13z"/>
<path d="M1601 1954 c0 -11 3 -14 6 -6 3 7 2 16 -1 19 -3 4 -6 -2 -5 -13z"/>
<path d="M1457 1953 c-4 -3 -7 -16 -6 -27 0 -19 1 -19 10 3 10 24 8 36 -4 24z"/>
<path d="M1563 1935 c-3 -9 -3 -18 -1 -21 3 -3 8 4 11 16 6 23 -1 27 -10 5z"/>
<path d="M1610 1821 c0 -10 7 -22 16 -25 12 -5 15 -2 10 10 -3 8 -6 20 -6 25
0 5 -4 9 -10 9 -5 0 -10 -9 -10 -19z"/>
<path d="M1667 1820 c-10 -10 -14 -20 -10 -23 14 -9 35 9 31 25 -2 13 -6 12
-21 -2z"/>
<path d="M1752 1810 c0 -14 2 -19 5 -12 2 6 2 18 0 25 -3 6 -5 1 -5 -13z"/>
<path d="M1126 1795 c3 -7 19 -19 35 -25 16 -7 34 -20 39 -29 9 -15 11 -14 20
2 6 9 24 24 40 32 17 9 30 21 30 27 0 6 -8 4 -18 -5 -31 -28 -77 -32 -116 -9
-23 14 -33 16 -30 7z"/>
<path d="M1688 1783 c7 -3 16 -2 19 1 4 3 -2 6 -13 5 -11 0 -14 -3 -6 -6z"/>
<path d="M1138 1693 c-23 -4 -28 -9 -28 -34 0 -21 5 -29 17 -29 13 0 14 3 5
12 -15 15 -16 32 -2 23 6 -3 10 0 10 7 0 10 2 10 9 -1 9 -14 77 -19 111 -9 29
9 50 20 50 27 0 7 -132 10 -172 4z"/>
<path d="M1321 1684 c0 -11 3 -14 6 -6 3 7 2 16 -1 19 -3 4 -6 -2 -5 -13z"/>
<path d="M1292 1650 c-8 -13 -8 -20 -2 -20 6 0 13 7 17 15 9 24 -1 27 -15 5z"/>
<path d="M1107 1606 c3 -4 33 -5 67 -2 46 5 57 4 46 -5 -13 -9 -12 -10 3 -5
10 3 33 6 50 7 l32 1 -35 9 c-43 11 -170 7 -163 -5z"/>
<path d="M1070 1526 c0 -2 7 -9 15 -16 9 -7 15 -8 15 -2 0 5 -7 12 -15 16 -8
3 -15 4 -15 2z"/>
<path d="M1140 1484 c19 -9 39 -23 45 -31 16 -22 55 -8 55 20 0 16 -3 18 -12
9 -13 -13 -32 -16 -24 -4 2 4 -7 8 -22 8 -15 0 -38 3 -52 7 -14 4 -9 0 10 -9z"/>
<path d="M1867 1373 c-14 -13 -6 -33 12 -33 25 0 38 20 20 31 -17 11 -24 11
-32 2z"/>
<path d="M1815 1342 c-5 -4 -11 -21 -12 -39 -2 -26 0 -31 13 -26 8 3 13 11 10
18 -3 8 2 16 10 19 8 3 14 10 14 16 0 6 -4 9 -9 6 -5 -4 -11 -2 -13 4 -1 5 -7
6 -13 2z"/>
<path d="M1830 1252 c0 -6 -3 -17 -6 -25 -4 -12 0 -14 15 -10 25 6 26 10 6 29
-8 9 -15 11 -15 6z"/>
<path d="M642 1170 c0 -14 2 -19 5 -12 2 6 2 18 0 25 -3 6 -5 1 -5 -13z"/>
<path d="M1297 1156 c4 -5 0 -7 -8 -4 -8 3 -35 -5 -59 -18 -25 -13 -41 -23
-37 -24 5 0 17 5 27 10 16 8 18 7 14 -4 -4 -9 -17 -13 -38 -11 -19 1 -40 -2
-47 -7 -10 -6 -7 -7 10 -3 17 5 21 4 16 -5 -4 -7 -20 -10 -39 -7 -17 3 -26 4
-20 1 6 -3 9 -16 6 -29 -3 -18 0 -25 12 -25 9 0 16 -4 16 -9 0 -5 -9 -7 -21
-4 -28 8 -69 -16 -70 -41 -1 -17 -2 -18 -6 -3 -6 22 -16 22 -36 -1 -25 -27
-21 -55 13 -85 l30 -27 0 42 c1 35 3 40 11 25 14 -25 2 -90 -22 -115 -22 -24
-16 -30 26 -27 43 3 43 3 48 23 4 13 5 11 6 -5 0 -13 6 -23 11 -23 6 0 10 28
10 65 0 36 4 65 8 65 5 0 7 -13 4 -29 -3 -24 0 -30 19 -34 24 -4 24 -4 2 -6
-30 -1 -34 -51 -4 -51 23 0 31 18 33 78 1 36 2 39 5 15 3 -23 10 -33 26 -36
l22 -4 -22 -2 c-30 -1 -34 -51 -4 -51 11 0 26 -3 34 -6 11 -4 17 2 20 18 4 21
4 21 6 2 1 -19 7 -21 60 -20 33 0 57 4 54 9 -3 5 4 4 16 -2 19 -11 21 -9 21
19 0 29 -2 30 -42 30 l-41 0 19 -22 19 -21 -33 19 c-31 18 -33 22 -31 69 3 66
13 80 19 27 l5 -42 28 26 c29 27 31 50 4 48 -9 -1 -15 2 -12 6 3 4 -2 11 -11
14 -10 4 -13 13 -9 26 5 15 0 21 -19 26 -39 9 -49 60 -19 90 13 13 23 32 23
44 0 16 -6 20 -29 18 -16 -1 -27 -6 -24 -12z m-26 -43 l-5 -38 -6 30 c-5 24 1
40 15 45 1 0 -1 -17 -4 -37z m-31 -91 c0 -5 -18 -8 -40 -8 -22 1 -40 4 -40 9
0 4 18 7 40 7 22 0 40 -4 40 -8z m70 4 c0 -2 -9 -6 -20 -9 -11 -3 -20 -1 -20
4 0 5 9 9 20 9 11 0 20 -2 20 -4z m17 -68 c-3 -8 -6 -5 -6 6 -1 11 2 17 5 13
3 -3 4 -12 1 -19z m-95 -12 c6 4 9 1 6 -7 -5 -16 -58 -19 -58 -4 0 6 4 10 9
10 5 0 13 4 17 8 5 5 10 3 12 -2 2 -6 8 -8 14 -5z"/>
<path d="M1693 1134 c-7 -18 18 -66 38 -73 7 -2 3 8 -8 23 -12 15 -19 34 -16
46 6 24 -5 27 -14 4z"/>
<path d="M743 1113 c-7 -3 -13 -10 -13 -15 0 -6 3 -8 7 -5 3 4 12 2 19 -4 9
-7 12 -6 10 5 -3 20 -8 24 -23 19z"/>
<path d="M736 1064 c-3 -8 -2 -12 4 -9 6 3 10 2 10 -2 0 -5 9 -9 20 -10 26 -2
25 1 -4 20 -21 14 -25 15 -30 1z"/>
<path d="M1080 1076 c0 -2 7 -7 16 -10 8 -3 12 -2 9 4 -6 10 -25 14 -25 6z"/>
<path d="M1020 1060 c-20 -6 -21 -8 -5 -8 11 0 29 3 40 8 25 11 -1 11 -35 0z"/>
<path d="M806 1039 c3 -5 33 -9 66 -9 34 0 59 2 57 4 -10 8 -129 13 -123 5z"/>
<path d="M953 1043 c9 -2 23 -2 30 0 6 3 -1 5 -18 5 -16 0 -22 -2 -12 -5z"/>
<path d="M720 1019 c0 -11 4 -18 10 -14 5 3 7 12 3 20 -7 21 -13 19 -13 -6z"/>
<path d="M1345 1030 c3 -5 11 -10 16 -10 6 0 7 5 4 10 -3 6 -11 10 -16 10 -6
0 -7 -4 -4 -10z"/>
<path d="M1380 1013 c0 -6 -3 -18 -6 -26 -3 -9 3 -16 15 -20 13 -3 21 0 21 7
0 16 -29 55 -30 39z"/>
<path d="M695 980 c3 -5 8 -10 11 -10 2 0 4 5 4 10 0 6 -5 10 -11 10 -5 0 -7
-4 -4 -10z"/>
<path d="M1767 905 c-8 -56 -7 -59 17 -42 15 11 15 16 3 52 l-14 39 -6 -49z"/>
<path d="M1800 906 c0 -8 4 -17 9 -20 5 -4 7 3 4 14 -6 23 -13 26 -13 6z"/>
<path d="M970 801 c-17 -33 -12 -43 13 -26 13 8 26 12 30 9 3 -3 3 3 0 15 -7
26 -29 27 -43 2z"/>
<path d="M1238 633 c7 -3 16 -2 19 1 4 3 -2 6 -13 5 -11 0 -14 -3 -6 -6z"/>
<path d="M1127 496 c20 -11 146 -11 166 1 10 5 -24 8 -83 8 -63 0 -93 -3 -83
-9z"/>
<path d="M682 1870 c0 -14 2 -19 5 -12 2 6 2 18 0 25 -3 6 -5 1 -5 -13z"/>
<path d="M718 1879 c-27 -15 -22 -39 7 -39 30 0 53 35 29 44 -19 7 -15 8 -36
-5z m22 -19 c0 -5 -4 -10 -9 -10 -6 0 -13 5 -16 10 -3 6 1 10 9 10 9 0 16 -4
16 -10z"/>
<path d="M492 1739 c-7 -12 -11 -23 -8 -26 8 -9 36 17 36 33 0 20 -13 17 -28
-7z"/>
<path d="M540 270 c0 -5 12 -10 26 -10 14 0 23 4 19 10 -3 6 -15 10 -26 10
-10 0 -19 -4 -19 -10z"/>
<path d="M820 255 c0 -18 5 -25 20 -25 25 0 38 29 19 41 -25 15 -39 10 -39
-16z"/>
<path d="M1060 255 c0 -18 5 -25 19 -25 26 0 36 17 21 35 -19 23 -40 18 -40
-10z"/>
<path d="M1700 270 c0 -5 12 -10 26 -10 14 0 23 4 19 10 -3 6 -15 10 -26 10
-10 0 -19 -4 -19 -10z"/>
<path d="M1850 270 c0 -5 9 -10 20 -10 11 0 20 5 20 10 0 6 -9 10 -20 10 -11
0 -20 -4 -20 -10z"/>
</g>
</svg>
