<?xml version="1.0" standalone="no"?>
<!DOCTYPE svg PUBLIC "-//W3C//DTD SVG 20010904//EN"
 "http://www.w3.org/TR/2001/REC-SVG-20010904/DTD/svg10.dtd">
<svg version="1.0" xmlns="http://www.w3.org/2000/svg"
 width="181.000000pt" height="279.000000pt" viewBox="0 0 181.000000 279.000000"
 preserveAspectRatio="xMidYMid meet">

<g transform="translate(0.000000,279.000000) scale(0.100000,-0.100000)"
fill="#000000" stroke="none">
<path d="M0 1395 l0 -1395 905 0 905 0 0 1395 0 1395 -905 0 -905 0 0 -1395z
m213 1225 c-3 -11 -9 -20 -14 -20 -11 0 -11 3 -3 24 9 23 23 20 17 -4z m65 13
c-10 -2 -26 -2 -35 0 -10 3 -2 5 17 5 19 0 27 -2 18 -5z m479 -23 c-1 -16 -5
-30 -10 -30 -4 0 -6 14 -5 30 1 17 6 30 10 30 4 0 6 -13 5 -30z m40 24 c-3 -3
-12 -4 -19 -1 -8 3 -5 6 6 6 11 1 17 -2 13 -5z m49 -17 c4 -28 -13 -29 -19 -1
-2 14 0 23 6 21 6 -2 11 -11 13 -20z m-476 -3 c0 -8 -4 -12 -10 -9 -5 3 -10
10 -10 16 0 5 5 9 10 9 6 0 10 -7 10 -16z m135 6 c3 -6 -1 -7 -9 -4 -18 7 -21
14 -7 14 6 0 13 -4 16 -10z m111 -9 c-15 -16 -15 -22 -4 -40 7 -12 16 -21 20
-21 5 0 8 -5 8 -12 0 -6 -13 1 -30 17 l-30 29 22 23 c26 28 39 31 14 4z m291
-58 c-2 -16 -4 -3 -4 27 0 30 2 43 4 28 2 -16 2 -40 0 -55z m232 70 c-20 -3
-26 -10 -26 -28 0 -16 4 -22 11 -18 6 4 5 -1 -2 -10 -8 -9 -10 -22 -6 -28 4
-8 3 -9 -4 -5 -6 4 -11 27 -10 51 1 44 1 45 32 44 28 -2 29 -2 5 -6z m168 1
c-3 -3 -12 -4 -19 -1 -8 3 -5 6 6 6 11 1 17 -2 13 -5z m156 -94 c-3 -3 -9 3
-14 13 -6 9 -19 17 -29 17 -28 0 -34 18 -14 47 l17 27 22 -49 c12 -28 20 -52
18 -55z m97 60 l39 -40 4 42 c3 40 4 39 5 -12 l2 -54 -44 43 -45 44 -4 -44
c-3 -44 -4 -44 -5 9 -1 28 1 52 4 52 3 0 23 -18 44 -40z m-364 15 c-1 -8 -5
-17 -8 -21 -5 -4 -4 16 1 34 3 9 9 -1 7 -13z m61 -42 c-3 -10 -5 -2 -5 17 0
19 2 27 5 18 2 -10 2 -26 0 -35z m-974 20 c-9 -3 -8 -11 4 -31 l17 -27 -30 28
c-17 15 -37 27 -45 27 -8 0 -20 -12 -26 -27 -11 -27 -11 -27 -8 -3 2 14 4 29
4 34 1 5 17 6 36 3 19 -3 37 -1 41 4 3 6 9 7 13 3 3 -4 0 -9 -6 -11z m137 -9
c0 -8 -4 -14 -9 -14 -6 0 -9 9 -8 19 1 22 17 18 17 -5z m647 7 c1 -11 -8 -27
-20 -38 -22 -18 -22 -18 -4 3 9 11 14 23 11 27 -3 3 -3 10 1 16 9 15 11 14 12
-8z m275 -13 c-8 -8 -9 -4 -5 13 4 13 8 18 11 10 2 -7 -1 -18 -6 -23z m-779 5
c-6 -2 -9 -14 -7 -26 4 -21 4 -21 -4 -2 -11 24 -4 47 11 38 8 -5 8 -8 0 -10z
m252 9 c-3 -3 5 -17 17 -30 23 -26 8 -21 -24 6 -22 19 -23 29 -3 29 8 0 13 -3
10 -5z m177 -42 c6 0 9 -3 6 -6 -10 -9 -45 14 -52 33 -6 14 -2 13 14 -4 11
-13 26 -23 32 -23z m199 4 c13 -16 12 -16 -7 -6 -11 6 -27 19 -35 28 -13 16
-12 16 7 6 11 -6 27 -19 35 -28z m-436 16 c3 -5 1 -10 -4 -10 -6 0 -11 5 -11
10 0 6 2 10 4 10 3 0 8 -4 11 -10z m-385 -20 c0 -5 -2 -10 -4 -10 -3 0 -8 5
-11 10 -3 6 -1 10 4 10 6 0 11 -4 11 -10z m75 -8 c-3 -3 -11 0 -18 7 -9 10 -8
11 6 5 10 -3 15 -9 12 -12z m858 1 c-7 -2 -21 -2 -30 0 -10 3 -4 5 12 5 17 0
24 -2 18 -5z m-153 -103 c8 -5 12 -10 7 -10 -4 0 -1 -13 8 -30 8 -16 15 -49
15 -74 0 -35 5 -48 20 -56 18 -10 20 -7 22 22 0 18 0 45 -1 61 -1 15 2 27 8
27 5 0 11 -28 13 -62 3 -59 4 -61 21 -44 10 11 17 33 17 56 0 21 5 51 11 67 6
15 10 30 9 32 -2 4 22 21 31 21 4 0 -2 -18 -13 -40 -19 -37 -19 -44 -6 -85
l15 -44 -43 -17 c-38 -14 -44 -21 -44 -45 0 -19 6 -30 20 -34 35 -11 60 -54
60 -102 0 -27 -4 -42 -10 -38 -5 3 -10 -1 -10 -9 0 -8 -12 -24 -27 -36 -21
-17 -36 -20 -63 -16 -80 12 -109 113 -51 175 16 17 36 31 45 31 11 0 16 9 16
29 0 25 -6 31 -40 43 -22 7 -41 15 -41 18 -1 3 5 25 12 49 12 40 11 47 -8 82
-22 40 -20 46 7 29z m-407 -22 c18 1 22 -14 11 -43 -6 -14 -8 -13 -18 7 -15
31 -59 35 -85 9 -34 -34 -28 -57 14 -55 19 1 38 -2 41 -7 3 -5 -13 -9 -35 -9
-47 0 -50 -6 -19 -45 19 -24 26 -27 67 -22 41 5 44 4 26 -9 -34 -25 -82 -17
-116 17 -28 28 -30 36 -25 73 10 62 56 102 101 89 11 -4 28 -6 38 -5z m146 -3
c16 -8 31 -22 35 -30 7 -19 -8 -50 -29 -63 -13 -7 -8 -18 26 -66 22 -31 39
-59 36 -62 -2 -3 -28 23 -57 56 l-52 60 26 21 c43 34 26 85 -26 77 -21 -3 -23
-8 -26 -77 -2 -61 0 -75 15 -87 16 -12 14 -13 -19 -14 -35 0 -52 14 -28 22 14
5 15 135 1 152 -10 12 -6 15 26 19 21 2 39 4 41 5 2 1 16 -5 31 -13z m-305
-28 c14 -40 -10 -81 -49 -85 l-30 -3 25 13 c20 11 25 21 25 53 0 38 -2 40 -30
40 l-30 0 -3 -75 c-2 -62 0 -77 14 -87 16 -11 13 -13 -20 -13 -29 0 -36 3 -29
13 6 6 13 47 16 89 5 66 3 77 -11 82 -9 2 12 4 48 3 61 -2 65 -3 74 -30z m521
16 c-3 -8 -5 -21 -5 -29 0 -8 -4 -14 -10 -14 -5 0 -10 9 -10 19 0 37 -70 43
-94 9 -23 -32 -20 -94 4 -118 22 -22 60 -26 91 -10 10 6 19 7 19 2 0 -12 -46
-32 -75 -32 -13 0 -37 12 -54 26 -24 20 -31 34 -31 61 0 73 33 103 113 101 46
-1 57 -4 52 -15z m313 -34 c-3 -20 -5 -19 -9 9 -3 20 -2 29 4 23 5 -5 7 -19 5
-32z m35 -252 c38 -48 73 -87 78 -87 5 0 8 12 5 28 -2 15 -5 53 -5 85 -1 44
-5 57 -16 57 -8 0 -15 5 -15 10 0 6 18 10 40 10 40 0 53 -13 25 -24 -12 -4
-15 -28 -16 -118 0 -62 -3 -106 -6 -98 -10 25 -65 85 -87 93 -15 6 -17 10 -8
16 9 6 7 12 -8 26 -11 10 -20 14 -20 10 0 -4 -9 0 -20 10 -15 14 -20 15 -21 4
-1 -8 -3 -27 -6 -44 -3 -16 -6 -48 -6 -70 -2 -41 -11 -55 -37 -55 -12 1 -11 3
3 11 15 9 17 26 17 123 0 113 6 139 25 114 5 -8 41 -53 78 -101z m-1103 93 c0
-6 -7 -10 -15 -10 -12 0 -15 -18 -15 -97 -1 -122 -12 -172 -45 -200 -39 -34
-48 -28 -20 13 23 34 25 45 25 160 0 104 -2 124 -15 124 -8 0 -15 4 -15 9 0 4
23 9 50 10 28 0 50 -4 50 -9z m124 -49 c22 -23 29 -41 33 -92 3 -35 10 -70 16
-76 7 -10 0 -13 -29 -13 -30 0 -35 3 -26 12 7 7 12 22 12 35 0 21 -5 23 -45
23 -43 0 -45 -1 -45 -29 0 -16 6 -32 13 -34 6 -3 -6 -6 -27 -6 -31 -1 -37 2
-28 11 7 7 12 33 12 60 0 55 24 112 54 126 30 15 29 15 60 -17z m239 -1 c-9
-40 -17 -47 -23 -21 -3 15 -16 28 -34 34 -60 20 -115 -68 -81 -132 21 -41 72
-54 116 -31 24 13 25 2 2 -16 -21 -16 -72 -18 -107 -4 -62 23 -71 127 -14 175
25 21 38 25 88 23 57 -3 59 -4 53 -28z m89 18 c-16 -16 -16 -170 0 -186 9 -9
3 -12 -27 -12 -30 0 -36 3 -27 12 15 15 17 178 2 178 -5 0 -10 5 -10 10 0 6
17 10 37 10 29 0 34 -3 25 -12z m105 -3 c-21 -15 -67 -75 -67 -86 0 -4 22 -35
49 -70 55 -71 59 -90 8 -41 -18 18 -37 29 -42 25 -4 -5 -5 -3 -2 3 3 6 -7 25
-23 41 l-30 30 34 45 c26 34 32 48 23 57 -8 8 -1 11 29 11 35 -1 37 -2 21 -15z
m173 0 c13 -16 7 -45 -10 -45 -5 0 -10 9 -10 19 0 22 -25 34 -51 26 -42 -14
-17 -55 60 -97 34 -18 39 -43 17 -73 -15 -20 -85 -27 -117 -12 -10 5 -16 3
-16 -5 0 -7 14 -14 30 -15 36 -3 49 -19 42 -51 -7 -31 6 -52 16 -26 6 16 8 15
8 -8 1 -32 -5 -35 -31 -11 -18 16 -18 16 -12 0 3 -10 1 -17 -5 -17 -15 0 -14
47 1 52 20 7 -3 30 -24 25 -11 -3 -17 -3 -14 1 4 3 -13 25 -36 49 l-42 43 29
0 c15 0 37 7 47 17 17 15 18 15 18 -11 0 -53 80 -61 88 -8 3 16 -8 27 -47 47
-59 29 -75 63 -46 95 22 24 87 27 105 5z m-46 -40 c-7 -18 -20 -19 -30 -3 -4
6 -3 8 4 4 6 -3 13 -2 17 4 9 15 15 12 9 -5z m-180 -160 c-25 -19 -40 -19 -24
0 7 8 20 15 28 15 13 0 12 -3 -4 -15z m551 -3 c-3 -3 -11 0 -18 7 -9 10 -8 11
6 5 10 -3 15 -9 12 -12z m-726 -49 c-5 -28 4 -52 19 -56 11 -3 8 -5 -9 -6 -22
-1 -27 4 -31 29 -3 17 -2 32 0 35 8 8 22 6 21 -2z m-309 -23 c-21 -7 -22 -8
-5 -10 l20 -1 -20 -8 c-19 -8 -18 -9 5 -13 25 -5 25 -5 -2 -7 -24 -1 -28 3
-28 24 0 21 5 25 28 24 l27 -1 -25 -8z m118 -12 c5 -26 -33 -42 -53 -22 -12
13 -13 19 -4 31 16 18 53 13 57 -9z m42 12 c-23 -7 -23 -8 -3 -9 34 -2 36 -19
4 -36 -39 -20 -52 -39 -20 -30 l24 6 -25 -20 c-14 -11 -32 -21 -40 -21 -13 0
-13 1 0 10 12 8 12 10 -5 10 -20 1 -20 1 0 10 24 9 52 39 39 41 -5 1 2 5 16 9
24 8 24 8 3 9 -13 1 -23 7 -23 16 0 10 9 15 28 14 l27 -1 -25 -8z m117 -6 c8
-21 -19 -46 -40 -38 -17 6 -23 35 -10 47 12 13 44 7 50 -9z m80 -21 c-3 -10
-5 -4 -5 12 0 17 2 24 5 18 2 -7 2 -21 0 -30z m37 28 c7 -11 -3 -41 -13 -41
-4 0 -7 11 -7 25 0 25 10 33 20 16z m46 -15 c0 -19 -5 -24 -20 -23 -24 2 -24
2 -8 27 17 27 28 25 28 -4z m70 9 c0 -8 -9 -15 -19 -15 -11 0 -22 -6 -24 -12
-3 -7 -6 -1 -6 15 -1 22 3 27 24 27 16 0 25 -6 25 -15z m30 -10 c0 -14 -4 -25
-10 -25 -5 0 -10 11 -10 25 0 14 5 25 10 25 6 0 10 -11 10 -25z m50 16 c0 -5
2 -15 5 -23 3 -8 -3 -13 -19 -13 -15 0 -22 5 -19 12 3 7 9 10 14 7 5 -3 6 2 3
10 -3 9 -1 16 5 16 6 0 11 -4 11 -9z m158 -17 c4 -26 -20 -37 -44 -20 -24 18
-11 48 18 44 14 -2 24 -11 26 -24z m52 16 c-24 -8 -24 -8 -2 -9 12 -1 22 -7
22 -15 0 -17 -33 -27 -51 -15 -10 6 -5 9 16 10 27 0 26 2 -13 15 -22 7 -3 24
26 23 l27 -1 -25 -8z m261 -25 c5 4 9 -5 9 -19 0 -17 6 -26 16 -26 9 0 14 -6
12 -12 -7 -19 -70 -19 -84 0 -8 11 -13 12 -18 4 -4 -7 -11 -12 -17 -12 -5 0
-1 8 9 18 9 10 24 18 32 18 9 -1 17 10 19 29 3 19 6 24 8 12 3 -9 9 -15 14
-12z m-357 -47 c-5 -8 -2 -9 9 -5 19 7 23 -8 5 -19 -6 -4 -14 -2 -16 4 -2 8
-8 8 -18 -3 -8 -8 -21 -12 -30 -8 -10 4 -5 10 18 23 42 22 40 22 32 8z m-653
-89 c-5 -13 -10 -19 -10 -12 -1 15 10 45 15 40 3 -2 0 -15 -5 -28z m-128 -66
c-3 -7 -9 -13 -13 -13 -9 0 -20 37 -13 44 9 8 31 -18 26 -31z m432 7 c4 -6 30
-22 58 -35 45 -22 52 -23 67 -10 23 21 40 19 40 -5 0 -31 34 -43 69 -25 16 8
33 19 36 25 3 5 13 10 22 10 8 0 33 14 54 31 48 38 69 33 69 -16 0 -20 7 -43
15 -52 14 -13 18 -13 41 1 16 11 42 16 72 15 32 -2 57 4 74 15 29 19 53 13 44
-10 -3 -8 0 -25 6 -39 14 -32 9 -37 -30 -26 -27 8 -33 6 -47 -15 -8 -13 -24
-24 -35 -24 -22 0 -50 -26 -50 -47 0 -10 6 -14 20 -10 11 3 20 1 20 -4 0 -16
-39 -9 -49 9 -8 13 -10 14 -11 2 0 -43 43 -49 69 -10 9 13 11 21 4 17 -26 -16
-21 13 6 32 32 23 90 28 92 9 4 -40 -11 -59 -40 -51 -10 2 -27 -4 -39 -14 -17
-14 -19 -21 -11 -33 9 -13 10 -12 5 3 -3 10 0 17 8 17 9 0 15 -15 18 -40 3
-31 0 -39 -10 -35 -10 3 -11 -1 -7 -16 7 -21 -11 -52 -26 -43 -5 3 -9 1 -9 -4
0 -5 -9 -12 -20 -15 -17 -4 -18 -2 -9 15 6 11 8 22 5 26 -3 3 -6 0 -6 -6 0 -8
-7 -9 -24 -2 -13 5 -27 6 -30 3 -3 -4 -6 -1 -6 5 0 7 10 12 23 13 14 0 17 2 7
6 -8 3 -30 21 -49 39 -27 27 -32 38 -27 59 4 16 3 24 -3 21 -5 -3 -12 0 -14 6
-3 7 -6 1 -6 -14 -1 -16 -7 -29 -13 -30 -7 0 -19 -2 -27 -2 -7 -1 -22 -17 -32
-36 -11 -19 -19 -30 -20 -25 -1 6 -5 -1 -9 -15 -12 -37 -12 -128 0 -135 6 -4
7 -11 4 -17 -4 -7 -2 -8 5 -4 9 6 9 11 0 22 -9 11 -8 14 4 14 13 0 16 -9 14
-37 -2 -33 2 -39 41 -66 32 -22 41 -32 33 -40 -9 -9 -18 -4 -35 17 -30 39 -81
39 -113 1 -28 -32 -29 -60 -3 -82 32 -28 22 -61 -15 -47 -10 4 -15 14 -12 25
6 21 -1 23 -23 9 -10 -6 -11 -10 -2 -10 6 0 12 -8 12 -18 0 -23 -104 -62 -194
-73 l-61 -8 70 4 c39 2 100 15 137 28 37 13 65 20 61 15 -3 -6 3 -7 16 -3 40
13 21 -3 -43 -33 -90 -43 -160 -62 -228 -62 -32 0 -58 -4 -58 -9 0 -4 38 -8
85 -7 51 0 78 4 68 9 -11 4 -4 5 17 2 25 -4 31 -2 20 5 -17 11 -1 14 24 4 8
-3 12 -12 9 -21 -5 -13 -2 -15 15 -11 14 4 20 2 15 -5 -4 -7 0 -8 11 -4 10 4
35 7 57 7 37 0 39 1 29 21 -7 11 -9 28 -6 36 4 9 1 21 -4 29 -9 9 -6 15 8 23
18 10 19 7 15 -32 -5 -42 -4 -42 12 -19 12 17 14 27 7 34 -6 6 -7 20 -3 32 8
25 8 41 -3 79 -6 18 -4 32 5 43 15 19 64 15 64 -6 0 -18 9 -30 57 -81 36 -37
68 -51 68 -28 0 6 8 9 18 7 9 -2 26 4 36 14 18 16 20 16 31 1 10 -14 13 -10
18 23 4 23 19 53 37 72 34 37 37 44 15 36 -11 -5 -14 -1 -12 15 2 11 6 24 10
27 4 4 7 16 7 26 0 10 5 18 11 18 15 0 49 39 49 55 0 7 7 18 15 25 12 10 16 9
21 -5 5 -11 1 -21 -9 -27 -11 -6 -17 -22 -17 -43 0 -27 -4 -35 -17 -35 -15 0
-13 -4 7 -19 l24 -19 -39 -24 c-22 -12 -43 -22 -47 -20 -5 1 -8 -3 -8 -8 0
-12 27 -13 32 -2 2 5 15 12 29 15 30 8 56 -14 43 -35 -5 -7 -9 -17 -10 -23 -3
-27 -17 -55 -27 -55 -6 0 -2 -6 8 -14 18 -13 16 -15 -28 -36 -26 -13 -47 -29
-48 -39 -1 -10 -4 -6 -10 9 -6 19 -7 15 -3 -15 3 -22 8 -51 10 -65 2 -14 8
-41 14 -60 13 -45 13 -73 0 -65 -6 4 -8 16 -5 28 5 16 4 18 -3 8 -8 -11 -11
-10 -14 5 -3 13 -6 9 -9 -12 -4 -24 -2 -31 8 -27 8 3 13 -2 13 -12 0 -12 -5
-15 -17 -11 -10 4 -14 4 -10 0 11 -11 -69 -84 -92 -84 -12 0 -24 -7 -27 -15
-6 -15 -25 -21 -23 -8 4 26 -3 63 -12 63 -5 0 -8 -4 -4 -9 3 -5 1 -12 -5 -16
-5 -3 -10 3 -10 14 0 12 -4 21 -8 21 -5 0 -8 -10 -6 -23 1 -12 3 -30 3 -39 1
-10 9 -19 19 -19 15 -1 15 -2 0 -6 -24 -6 -88 23 -88 41 0 11 -9 14 -34 12
-19 -1 -33 1 -30 6 3 4 -2 5 -10 2 -41 -16 68 -154 120 -154 15 0 24 -6 24
-15 0 -11 -5 -12 -25 -5 -19 7 -32 6 -49 -5 -13 -9 -31 -13 -41 -9 -14 6 -16
4 -10 -6 6 -10 4 -12 -9 -7 -10 4 -22 7 -27 7 -6 0 -8 4 -5 9 4 5 -4 7 -15 4
-20 -6 -20 -7 7 -19 27 -11 24 -12 -44 -13 -40 -1 -71 3 -68 7 3 5 -9 6 -26 4
-20 -3 -29 -1 -24 6 3 6 -1 8 -11 6 -10 -2 -24 0 -32 5 -13 8 -13 12 0 28 12
16 12 17 -1 7 -8 -6 -30 -16 -47 -22 -27 -9 -33 -8 -33 4 0 8 10 14 23 14 44
0 112 65 131 128 6 19 4 22 -21 22 -16 0 -35 6 -42 12 -7 7 -12 9 -11 3 2 -5
1 -13 0 -17 -1 -5 -3 -14 -4 -20 0 -7 -20 -20 -44 -28 -34 -12 -46 -12 -60 -2
-9 6 -37 22 -62 34 -47 23 -124 92 -93 82 10 -3 5 2 -12 12 -16 9 -31 18 -33
19 -2 2 4 31 14 65 12 43 20 57 26 48 6 -9 8 -3 4 17 -4 17 -9 45 -12 63 -4
17 -11 32 -16 32 -5 0 -6 -6 -2 -12 6 -10 4 -10 -7 -2 -8 6 -26 14 -41 18 -27
6 -40 36 -17 36 8 0 8 4 1 13 -5 6 -17 29 -25 50 l-16 37 29 15 c35 18 44 19
33 3 -13 -22 -12 -38 3 -38 8 0 14 -4 14 -10 0 -5 11 -10 24 -10 18 0 24 5 23
20 -1 11 -7 22 -13 24 -7 3 -10 -3 -7 -15 3 -10 0 -19 -6 -19 -12 0 -20 16
-25 47 -2 11 -11 17 -22 16 -16 -1 -15 2 6 19 14 12 18 19 10 16 -57 -22 -56
-22 -31 0 26 23 57 28 81 12 12 -7 12 -10 1 -10 -8 0 -11 -6 -7 -16 3 -8 2
-12 -4 -9 -6 3 -10 1 -10 -5 0 -7 8 -14 19 -17 20 -5 51 -62 52 -96 0 -16 6
-11 22 23 19 39 26 45 49 42 15 -2 38 4 52 13 32 21 60 13 53 -15 -6 -24 1
-25 31 -4 17 12 22 24 20 46 -4 44 -38 55 -75 24 -16 -13 -34 -21 -42 -18 -8
3 -11 0 -7 -7 4 -6 2 -11 -3 -11 -17 0 -13 10 19 47 33 37 38 73 16 115 -13
24 -12 27 7 32 24 6 43 -7 52 -35 4 -10 15 -19 25 -19 24 0 36 -18 22 -32 -8
-8 -16 -7 -27 2 -12 10 -15 10 -15 -4 0 -37 63 -22 68 17 9 61 16 86 23 81 15
-9 10 23 -6 36 -8 7 -15 22 -15 34 0 17 -2 18 -10 6 -8 -13 -10 -12 -10 4 0
10 -10 34 -21 53 -18 28 -20 44 -15 88 6 51 5 53 -19 58 -28 5 -57 -27 -32
-36 6 -2 -1 -8 -16 -12 l-28 -7 26 -34 c28 -36 21 -49 -23 -39 -29 6 -42 -4
-71 -55 l-14 -24 26 17 c29 19 72 23 82 7 3 -5 2 -10 -4 -10 -6 0 -8 -7 -5
-15 4 -8 10 -12 15 -9 12 7 11 -3 -2 -27 -8 -17 -20 -20 -67 -18 -65 2 -137
-23 -153 -52 -5 -11 -14 -19 -20 -19 -6 0 -7 6 -3 13 5 8 2 7 -10 -2 -13 -11
-20 -11 -28 -3 -9 9 -8 16 6 30 18 16 19 16 12 -3 -6 -17 -4 -17 19 5 22 21
23 25 10 33 -11 6 -27 2 -49 -11 -44 -26 -58 -17 -46 30 7 25 19 39 39 47 15
7 43 26 62 44 19 17 38 30 42 29 5 -1 6 2 3 6 -14 23 79 68 118 58 21 -5 26
-1 36 32 7 20 16 41 20 45 4 5 5 28 2 53 -6 52 10 79 38 64 11 -6 22 -15 25
-20z m-149 -137 c1 -18 -2 -21 -13 -12 -7 6 -13 26 -13 43 1 28 2 29 12 11 7
-11 13 -30 14 -42z m-265 -116 c-8 -8 -11 -5 -11 9 0 27 14 41 18 19 2 -9 -1
-22 -7 -28z m1032 3 c-3 -12 -8 -19 -11 -16 -5 6 5 36 12 36 2 0 2 -9 -1 -20z
m-216 -61 c1 -15 0 -17 -3 -6 -3 9 -10 15 -15 12 -5 -4 -9 1 -9 10 0 26 25 11
27 -16z m25 -14 c3 -13 1 -22 -3 -19 -9 5 -13 44 -5 44 2 0 6 -11 8 -25z
m-860 -186 c16 -9 24 -7 39 10 21 22 54 28 64 11 3 -6 -4 -10 -18 -10 -14 0
-30 -7 -37 -15 -29 -35 -81 -5 -78 45 1 24 1 24 5 -3 2 -15 13 -32 25 -38z
m1045 55 c-3 -3 -12 -4 -19 -1 -8 3 -5 6 6 6 11 1 17 -2 13 -5z m-817 -69 c0
-5 -5 -3 -10 5 -5 8 -10 20 -10 25 0 6 5 3 10 -5 5 -8 10 -19 10 -25z m667
-88 c-8 -12 -27 -23 -42 -25 l-27 -4 33 30 c37 33 58 32 36 -1z m423 -121 c6
-8 10 -25 8 -38 -2 -18 -10 -24 -35 -26 -28 -3 -33 1 -39 23 -11 45 37 75 66
41z m-658 -66 c-2 -14 -8 -29 -13 -34 -5 -6 -7 -1 -4 11 2 12 -2 24 -9 26 -9
4 -12 -3 -11 -18 3 -19 -2 -24 -30 -27 -19 -2 -31 0 -29 4 3 5 -2 11 -11 14
-11 5 -3 13 32 30 60 28 79 27 75 -6z m666 -132 c2 -99 1 -108 -18 -118 -14
-8 -26 -8 -40 0 -18 10 -20 21 -20 105 0 117 4 127 44 123 l31 -3 3 -107z
m-1343 -117 c3 -5 1 -12 -5 -16 -5 -3 -10 1 -10 9 0 18 6 21 15 7z m812 -107
c-3 -3 -12 -4 -19 -1 -8 3 -5 6 6 6 11 1 17 -2 13 -5z m-660 -86 c-3 -8 -6 -5
-6 6 -1 11 2 17 5 13 3 -3 4 -12 1 -19z m953 13 c0 -6 -4 -13 -10 -16 -5 -3
-10 1 -10 9 0 9 5 16 10 16 6 0 10 -4 10 -9z m268 -176 c-7 -7 -1489 -7 -1496
0 -3 3 334 5 748 5 414 0 751 -2 748 -5z m-1281 -77 c14 -19 10 -39 -8 -51
-24 -15 -49 -1 -49 28 0 15 4 24 10 20 6 -3 10 -15 10 -26 0 -10 7 -19 15 -19
18 0 21 46 3 53 -8 4 -9 6 -2 6 6 1 16 -5 21 -11z m985 -23 c-3 -28 -9 -35
-26 -35 -12 0 -28 6 -35 13 -11 10 -14 10 -18 0 -9 -25 -19 -12 -15 18 4 26 8
30 31 27 20 -2 25 -8 24 -25 -2 -13 2 -23 7 -23 6 0 10 11 10 23 0 23 7 37 20
37 3 0 4 -16 2 -35z m-1167 -5 c17 -32 14 -36 -16 -20 -13 7 -19 7 -19 0 0 -5
-5 -10 -10 -10 -6 0 -4 13 5 30 9 17 18 30 20 30 2 0 11 -13 20 -30z m105 23
c-44 -14 -45 -16 -20 -23 24 -8 24 -8 3 -9 -13 -1 -23 -5 -23 -11 0 -18 -17
-11 -17 8 -2 33 7 42 39 41 18 0 26 -3 18 -6z m156 -5 c10 -16 13 -48 4 -48
-3 0 -12 6 -19 13 -11 10 -14 10 -18 0 -9 -24 -23 -13 -23 17 0 25 4 30 24 30
14 0 28 -6 32 -12z m31 -35 c-3 -10 -5 -2 -5 17 0 19 2 27 5 18 2 -10 2 -26 0
-35z m72 21 c13 -28 6 -48 -9 -24 -7 11 -11 11 -24 1 -17 -14 -19 -11 -10 13
3 9 10 13 15 10 5 -3 6 2 3 10 -10 27 12 17 25 -10z m106 12 c16 -12 17 -16 6
-30 -7 -9 -24 -16 -37 -16 -20 0 -24 5 -24 30 0 34 22 40 55 16z m70 -16 c9
-17 11 -30 5 -30 -5 0 -10 5 -10 10 0 6 -7 10 -15 10 -8 0 -15 -4 -15 -10 0
-5 -4 -10 -10 -10 -7 0 19 60 27 60 1 0 9 -13 18 -30z m103 21 c23 -14 10 -46
-21 -49 -24 -3 -27 0 -27 27 0 32 19 41 48 22z m83 0 c-7 -5 -10 -14 -7 -20 5
-7 -2 -11 -16 -12 -19 -1 -18 -3 7 -9 29 -7 29 -8 -9 -9 -31 -1 -37 2 -32 15
3 9 6 22 6 30 0 9 11 14 33 14 22 0 28 -3 18 -9z m39 -17 c0 -19 4 -25 18 -22
10 2 17 12 16 26 0 12 3 22 8 22 5 0 8 -12 6 -27 -3 -24 -8 -28 -33 -28 -25 0
-30 4 -33 28 -2 15 1 27 7 27 6 0 11 -12 11 -26z m120 16 c11 -8 8 -9 -12 -4
-17 4 -28 2 -28 -5 0 -6 6 -8 13 -6 17 7 41 -11 33 -24 -4 -6 -20 -11 -36 -11
-24 0 -29 4 -27 23 2 34 27 47 57 27z m69 -16 c6 -15 9 -29 5 -33 -4 -3 -9 0
-11 7 -6 15 -33 16 -33 0 0 -6 -2 -9 -5 -6 -9 8 6 38 16 32 5 -3 6 2 3 10 -10
27 12 17 25 -10z m99 15 c-10 -5 -19 -20 -19 -32 -1 -20 -2 -20 -6 -2 -3 11
-12 26 -21 33 -13 10 -10 12 24 12 31 -1 36 -3 22 -11z m187 -9 c0 -8 -9 -16
-20 -19 -11 -2 -23 -8 -27 -15 -4 -6 -8 4 -8 22 0 30 2 33 28 30 16 -2 27 -9
27 -18z m35 -4 c0 -15 7 -26 18 -29 10 -3 6 -5 -10 -6 -25 -1 -28 3 -28 29 0
17 5 30 10 30 6 0 10 -11 10 -24z m60 -6 c0 -16 -4 -30 -10 -30 -5 0 -10 14
-10 30 0 17 5 30 10 30 6 0 10 -13 10 -30z m75 20 c4 -6 -3 -9 -17 -7 -15 1
-23 -4 -26 -17 -3 -15 1 -18 22 -14 14 3 26 1 26 -3 0 -10 -31 -12 -54 -3 -21
8 -20 31 2 43 22 13 39 14 47 1z m75 -1 c0 -6 -9 -8 -20 -4 -11 4 -20 2 -20
-4 0 -6 8 -11 18 -12 14 0 14 -2 -3 -9 -18 -7 -16 -8 10 -12 28 -5 27 -5 -7
-7 -36 -1 -38 1 -38 29 0 27 3 30 30 30 17 0 30 -5 30 -11z"/>
<path d="M1406 2594 c-9 -22 -8 -24 9 -24 8 0 15 6 15 14 0 22 -17 28 -24 10z"/>
<path d="M1186 2157 c-12 -9 -20 -31 -23 -64 -6 -54 6 -86 37 -103 18 -10 19
-6 19 85 0 52 -3 95 -8 95 -4 0 -15 -6 -25 -13z"/>
<path d="M1242 2120 c3 -28 1 -53 -3 -56 -12 -7 -11 -71 1 -79 5 -3 18 3 30
15 35 35 23 149 -18 165 -12 4 -14 -3 -10 -45z"/>
<path d="M612 2310 c0 -14 2 -19 5 -12 2 6 2 18 0 25 -3 6 -5 1 -5 -13z"/>
<path d="M301 2124 c0 -11 3 -14 6 -6 3 7 2 16 -1 19 -3 4 -6 -2 -5 -13z"/>
<path d="M407 2131 c-9 -16 -17 -39 -17 -50 0 -18 6 -21 45 -21 39 0 45 3 45
21 0 26 -30 79 -45 79 -6 0 -18 -13 -28 -29z"/>
<path d="M967 1949 c7 -7 15 -10 18 -7 3 3 -2 9 -12 12 -14 6 -15 5 -6 -5z"/>
<path d="M440 1875 c0 -8 7 -15 15 -15 8 0 15 7 15 15 0 8 -7 15 -15 15 -8 0
-15 -7 -15 -15z"/>
<path d="M600 1876 c0 -10 9 -16 21 -16 24 0 21 23 -4 28 -10 2 -17 -3 -17
-12z"/>
<path d="M848 1883 c7 -3 16 -2 19 1 4 3 -2 6 -13 5 -11 0 -14 -3 -6 -6z"/>
<path d="M1077 1884 c-9 -10 2 -24 19 -24 8 0 14 7 14 15 0 15 -21 21 -33 9z"/>
<path d="M1358 1613 c7 -3 16 -2 19 1 4 3 -2 6 -13 5 -11 0 -14 -3 -6 -6z"/>
<path d="M1230 1579 c0 -5 -5 -7 -12 -3 -7 4 -8 3 -4 -4 4 -6 13 -9 21 -6 8 4
12 10 9 15 -7 12 -14 11 -14 -2z"/>
<path d="M1060 1530 c0 -5 5 -10 11 -10 5 0 7 5 4 10 -3 6 -8 10 -11 10 -2 0
-4 -4 -4 -10z"/>
<path d="M770 1497 c0 -19 21 -37 42 -37 19 0 24 15 8 25 -5 3 -10 1 -10 -4 0
-6 -5 -11 -11 -11 -6 0 -9 6 -6 14 3 8 -1 17 -9 20 -8 3 -14 0 -14 -7z"/>
<path d="M1013 1503 c-7 -2 -9 -11 -6 -19 3 -8 0 -14 -6 -14 -6 0 -11 5 -11
11 0 5 -4 7 -10 4 -16 -10 -11 -25 9 -25 20 0 45 24 39 38 -1 5 -8 7 -15 5z"/>
<path d="M1169 1443 c-1 -5 -1 -12 0 -17 1 -4 -4 -14 -10 -22 -8 -10 -8 -14 0
-14 6 0 11 6 11 13 0 8 4 7 11 -3 9 -12 9 -11 4 5 -4 11 -8 26 -8 33 0 13 -6
17 -8 5z"/>
<path d="M546 1425 c5 -11 2 -14 -12 -9 -15 6 -17 4 -7 -6 10 -11 15 -11 28 0
19 16 19 30 0 30 -9 0 -12 -6 -9 -15z"/>
<path d="M1251 1394 c0 -11 3 -14 6 -6 3 7 2 16 -1 19 -3 4 -6 -2 -5 -13z"/>
<path d="M1205 1380 c3 -5 8 -10 11 -10 2 0 4 5 4 10 0 6 -5 10 -11 10 -5 0
-7 -4 -4 -10z"/>
<path d="M884 1345 c8 -7 12 -16 8 -21 -4 -5 3 0 16 10 12 11 22 20 22 21 0 1
-14 2 -31 2 -27 0 -29 -2 -15 -12z"/>
<path d="M367 1333 c-11 -10 -8 -20 6 -26 8 -3 13 3 13 14 0 19 -8 24 -19 12z"/>
<path d="M830 1290 c0 -5 5 -10 10 -10 6 0 10 5 10 10 0 6 -4 10 -10 10 -5 0
-10 -4 -10 -10z"/>
<path d="M860 1286 c0 -20 68 -22 93 -3 15 10 9 13 -38 15 -44 3 -55 0 -55
-12z"/>
<path d="M830 1260 c0 -5 5 -10 11 -10 5 0 7 5 4 10 -3 6 -8 10 -11 10 -2 0
-4 -4 -4 -10z"/>
<path d="M847 1233 c-3 -5 21 -8 53 -8 32 0 56 3 53 8 -2 4 -26 7 -53 7 -27 0
-51 -3 -53 -7z"/>
<path d="M876 1142 c-3 -5 1 -15 10 -23 12 -10 18 -9 32 5 16 16 16 17 -2 10
-10 -4 -21 -2 -26 6 -5 7 -10 8 -14 2z"/>
<path d="M950 1140 c-9 -6 -10 -10 -3 -10 6 0 15 5 18 10 8 12 4 12 -15 0z"/>
<path d="M1370 1120 c-9 -6 -10 -10 -3 -10 6 0 15 5 18 10 8 12 4 12 -15 0z"/>
<path d="M1392 1049 c2 -6 8 -10 13 -10 5 0 11 4 13 10 2 6 -4 11 -13 11 -9 0
-15 -5 -13 -11z"/>
<path d="M1351 1028 c-1 -20 14 -24 25 -6 4 6 3 8 -4 4 -5 -3 -13 0 -15 6 -3
8 -6 6 -6 -4z"/>
<path d="M446 988 c3 -5 10 -6 15 -3 13 9 11 12 -6 12 -8 0 -12 -4 -9 -9z"/>
<path d="M845 980 c-3 -5 -2 -10 4 -10 5 0 13 5 16 10 3 6 2 10 -4 10 -5 0
-13 -4 -16 -10z"/>
<path d="M808 963 c7 -3 16 -2 19 1 4 3 -2 6 -13 5 -11 0 -14 -3 -6 -6z"/>
<path d="M427 954 c-3 -5 3 -15 14 -22 17 -11 19 -9 19 10 0 17 -3 19 -9 9 -7
-11 -9 -11 -13 0 -3 8 -7 9 -11 3z"/>
<path d="M1360 950 c0 -5 5 -10 10 -10 6 0 10 5 10 10 0 6 -4 10 -10 10 -5 0
-10 -4 -10 -10z"/>
<path d="M558 923 c6 -2 12 -11 12 -18 0 -19 17 -28 26 -14 5 8 3 9 -6 4 -10
-6 -12 -4 -7 8 5 14 -12 28 -31 26 -4 0 -1 -3 6 -6z"/>
<path d="M844 901 c-30 -14 -65 -19 -135 -19 -115 -1 -119 -1 -94 -12 54 -23
241 4 280 41 15 14 -6 10 -51 -10z"/>
<path d="M1260 875 c0 -8 2 -15 4 -15 2 0 6 7 10 15 3 8 1 15 -4 15 -6 0 -10
-7 -10 -15z"/>
<path d="M540 871 c0 -6 5 -13 11 -16 7 -5 4 -15 -6 -32 -12 -17 -13 -23 -4
-17 8 4 27 8 44 7 26 -2 27 -1 7 5 -24 7 -31 24 -13 30 6 2 11 -1 11 -8 0 -6
5 -8 11 -4 6 3 -2 14 -20 25 -36 22 -41 23 -41 10z"/>
<path d="M1310 811 c0 -25 6 -27 13 -6 4 8 2 17 -3 20 -6 4 -10 -3 -10 -14z"/>
<path d="M728 813 c7 -3 16 -2 19 1 4 3 -2 6 -13 5 -11 0 -14 -3 -6 -6z"/>
<path d="M1000 811 c0 -6 4 -12 8 -15 5 -3 9 1 9 9 0 8 -4 15 -9 15 -4 0 -8
-4 -8 -9z"/>
<path d="M643 803 c9 -2 23 -2 30 0 6 3 -1 5 -18 5 -16 0 -22 -2 -12 -5z"/>
<path d="M798 800 c-10 -6 -14 -18 -11 -31 3 -11 9 -16 12 -10 4 5 7 -19 7
-54 0 -35 -3 -62 -7 -60 -4 3 -13 -3 -20 -12 -12 -15 -12 -16 5 -10 12 5 23 1
31 -10 12 -16 13 -15 8 7 -4 21 -1 25 21 25 22 0 24 -2 11 -11 -13 -10 -11
-11 10 -11 15 0 25 5 25 13 0 8 5 14 11 14 6 0 9 -7 5 -15 -4 -11 2 -15 24
-15 17 0 30 5 30 13 0 8 2 9 8 1 8 -14 62 -16 62 -2 0 5 -7 11 -15 14 -10 4
-15 20 -15 52 0 48 8 54 12 9 1 -15 6 -23 11 -18 14 14 4 66 -12 63 -8 -2 -11
3 -8 12 4 9 1 19 -6 23 -11 7 -116 5 -181 -3 -27 -3 -28 -3 -10 11 22 16 17
19 -8 5z m29 -97 c-2 -16 -4 -5 -4 22 0 28 2 40 4 28 2 -13 2 -35 0 -50z m115
32 c4 -5 8 -30 8 -55 0 -25 -4 -40 -8 -33 -4 6 -25 13 -46 15 -36 3 -40 6 -41
33 -1 17 3 36 8 43 11 14 69 13 79 -3z"/>
<path d="M870 706 c0 -9 6 -16 13 -17 6 0 3 -4 -8 -9 -19 -8 -18 -9 4 -9 19
-1 22 3 18 19 -3 11 -1 20 4 20 5 0 9 -9 9 -20 0 -12 7 -20 16 -20 10 0 14 7
12 23 -2 17 -11 23 -35 25 -25 2 -33 -1 -33 -12z"/>
<path d="M1027 781 c-3 -12 1 -22 9 -25 16 -6 18 12 5 32 -6 11 -9 9 -14 -7z"/>
<path d="M759 778 c-12 -46 -2 -88 20 -88 10 0 0 79 -10 86 -5 3 -9 4 -10 2z"/>
<path d="M1040 724 c0 -8 5 -12 10 -9 6 4 8 11 5 16 -9 14 -15 11 -15 -7z"/>
<path d="M1020 661 c1 -14 26 -36 43 -37 11 -1 17 5 17 20 0 16 -6 21 -30 22
-17 1 -30 -2 -30 -5z"/>
<path d="M726 641 c-8 -13 -3 -61 6 -61 6 0 8 9 5 20 -3 11 -2 20 3 20 4 0 10
6 13 13 5 13 -20 20 -27 8z"/>
<path d="M636 608 c-3 -13 -5 -32 -5 -43 1 -11 5 -2 10 19 10 42 6 62 -5 24z"/>
<path d="M701 583 c-1 -32 11 -44 24 -23 3 6 2 10 -4 10 -5 0 -12 10 -14 23
-3 16 -5 13 -6 -10z"/>
<path d="M1067 589 c4 -13 9 -17 15 -11 11 11 3 32 -12 32 -4 0 -6 -9 -3 -21z"/>
<path d="M1033 449 c9 -6 15 -14 12 -20 -3 -5 1 -6 10 -3 14 6 14 8 -2 20 -10
7 -22 13 -28 13 -5 0 -2 -4 8 -10z"/>
<path d="M1270 170 c0 -5 7 -10 16 -10 8 0 12 5 9 10 -3 6 -10 10 -16 10 -5 0
-9 -4 -9 -10z"/>
<path d="M418 163 c7 -3 16 -2 19 1 4 3 -2 6 -13 5 -11 0 -14 -3 -6 -6z"/>
<path d="M620 160 c0 -13 5 -20 13 -17 6 2 12 10 12 17 0 7 -6 15 -12 18 -8 2
-13 -5 -13 -18z"/>
<path d="M790 160 c0 -11 6 -20 14 -20 21 0 31 21 15 31 -22 14 -29 11 -29
-11z"/>
<path d="M875 170 c-3 -5 -1 -10 4 -10 6 0 11 5 11 10 0 6 -2 10 -4 10 -3 0
-8 -4 -11 -10z"/>
<path d="M1028 143 c6 -2 18 -2 25 0 6 3 1 5 -13 5 -14 0 -19 -2 -12 -5z"/>
<path d="M1385 170 c-3 -5 1 -10 9 -10 9 0 16 5 16 10 0 6 -4 10 -9 10 -6 0
-13 -4 -16 -10z"/>
</g>
</svg>
