<?xml version="1.0" encoding="UTF-8"?>
<svg version="1.1" viewBox="0 0 1320 1316" width="1280" height="1280" xmlns="http://www.w3.org/2000/svg">
<path transform="translate(0)" d="m0 0h1320v1316h-1320z" fill="#27040F"/>
<path transform="translate(0)" d="m0 0h1320v1316h-1320zm537 97-36 4-51 10-28 5-7 2-80 10-49 5-6 1-24 2-23 3-5 2-7 13-1 7v28l3 27 5 26 4 13 6 9 3 5-13 2-25 5-22 7-20 8-10 6-4 5-4 9-6 29-2 18v36l3 15 5 17 7 13 11 12 13 8 13 4h4l-6 11-4 11-4 17-1 7v17l3 18 4 15 8 16 4 5 1 3-17 2-17 3-10 4-10 9-6 11-2 10v23l1 14 1 43 3 14 4 8 8 8 11 5-3 24v36l3 25 3 16 10 48 1 10-2 17-4 19-1 8v10l4 14 4 11 2 4-21 4-23 5-29 6-14 3-6 3-3 4-2 20-1 17-3 31-1 14v27l2 7 7 6 21 7 52 15 38 10 18 5 29 7 15 4 18 4 6 2 15 3 26 6 37 8 17 4 29 6 17 3 56 11 17 3 44 8 36 6 23 4 38 6 14 2 14 3 30 4 14 3 21 3 27 4 26 3h16l11-4 13-8 33-22 28-19 16-11 20-14 26-17 15-9 17-10 68-35 24-14 19-12 16-12 5-5-1-7-4-8-6-7-7 1-14 10-1-1-3-40-3-21v-6l23-12 32-16 6-5-2-11-5-8h-11l-11 4-3 2h-3l-3-36v-8l11-6 19-12 1-4-5-5-16-8-24-8-16-4 5-5 12-8 14-12 8-9 1-2v-11l-3-17-8-20-16-34-3-10 2-7v-21l-1-11 16-9 5-6v-7l-4-7h-2v-2l-4-2h-9l-3-39-1-6v-8l14-2 18-5 6-4 3-4-1-8-5-6-12-2v-30l1-20 6-37 4-18 2-5 28-4 8-3 3-3-1-9-6-11-5-3-24-6-42-6h-4v-3l5-2 16-12 13-12 7-7 4-7-1-6-4-5h-7l-18 8-3-16-6-54v-7l17-9 5-4 4-8-1-19-6-36-3-23-3-18-2-6-10 2 1-29 19-2 6-4 3-5v-8l-5-5-11-4-40-7-130-13-37-2-80-3z" fill="#E5E5E5"/>
<path transform="translate(218,337)" d="m0 0 57 7 22 2 45 3 92 7 27 3 39 4 101 12 89 11 57 6 60 4 1 4-3 9-1 6v32l5 25 5 19 1 6h-28l-66-4-37-4-31-3-34-4-129-13-34-3-63-7-37-5-33-4-63-4-30-2-7-1-3-3-5-15-4-20-1-7v-14l6-43z" fill="#FCC75F"/>
<path transform="translate(204,593)" d="m0 0h13l24 7 26 6 22 3 13 2 24 3 25 2 14 2 20 2 79 10 29 3 4 1 35 3 18 2 23 3 28 3 16 2 50 7 25 3 3 1 24 3 21 3 3 2v24l-1 70-1 1h-11l-127-11-111-8-92-6-56-3-37-3-41-3-16-2-1-1v-8l4-35 3-31 1-3h20l25 2 2 1 24 1h27l9-1h7l6-4 2-5-19-4-110-12-45-6-44-7-1-2 5-5 12-6 22-5z" fill="#096D68"/>
<path transform="translate(224,1043)" d="m0 0 25 5 23 5 10 2 11 3 16 3 24 5 16 3 9 2 50 10 9 2 50 10 9 2 25 5 13 3 12 2 9 2 19 4 12 2 10 2 12 3 13 2 24 5 21 4 9 2 12 3 19 3 5 2-2 11-4 19-1 9-1 47h-9l-41-6-81-13-62-11-48-9-70-14-65-14-53-12-27-7-3-2-2-20v-56l1-17z" fill="#096D68"/>
<path transform="translate(1038,153)" d="m0 0h21l1 21-1 1-35 2-58 8-25 4-27 4-31 2-20 1-15 2-6 2-1 6 3 5 16 4 11 2h25l41-5 16-3 25-4 15-3 36-5 37-3 1 1 2 17v11l-18 4-30 4-12 3v8l3 3 5 1 50 1 2 2 4 15-1 5-11 4-27 4-29 3-30 2-44 5-36 3-87 11-55 5-26 1h-16l-15-1-7-10v-4l25-1 52-5 49-7 30-7 9-4 3-1v-8l-3-5-31 1-24 3-12 2-32 3-35 4-16 1h-25l-3-9-1-12 2-1 48-1 36-4 16-4 10-4 3-3-1-5-2-3h-14l-26 3-12 2-53 4h-8v-26l2-16 6-2 12-2 23-4 36-3 17-2 44-2 11-1 41-2 15-2 25-2 30-3 25-3 26-2 30-4z" fill="#F9F8F3"/>
<path transform="translate(609,779)" d="m0 0h13l42 3 79 7 31 3 56 4h23l12-4 11-8h4l-3 36-2 47-4 47-3 17-1 1h-21l-27-2-77-6-31-2-38-2-36-3-1-4 4-9 2-10 1-10v-14l-3-25-8-24-10-21-11-18z" fill="#FCC85F"/>
<path transform="translate(266,280)" d="m0 0h7l24 5 35 3 58 8 61 10 50 7 48 6 76 7 39 3 21 2 27 1h26l36-2 27-3 42-5 43-5 39-4 35-3 17-2 17-1v3l-16 9-10 7-21 13-22 14-14 10-17 14-5 5-12-2-16-3-12-1-73-3-71-6-61-7-32-4-90-10-35-4-59-6-112-8-36-3-51-6-36-6-19-5v-3l8-4 22-7 26-6 25-5z" fill="#FCC65F"/>
<path transform="translate(435,488)" d="m0 0 16 1 51 5 88 9 48 5 18 2 1 2-6 10-7 15-5 15-3 16v40l3 16-17-1-41-4-129-13-41-5-3-1-4-13-1-7v-17l2-13 5-21 6-16 6-11 9-10z" fill="#D0684E"/>
<path transform="translate(1081,471)" d="m0 0h1l-1 7-3 12-3 3-14 3-14 4-21 7-11 6-4 2-2 5-1 7h14l18-4 12-3 16-2h5l-2 16-4 2-14 3-16 3-6 3h-2v8l2 3 5 2h16l16-2 1 3-1 22-33 7-15 3-32 7-20 5-33 7-37 7-20 4-17 3-27 5-12 3-24 4-22 5-25 4-1 1h-8l-5-3-2-2-2-7v-5l19-1 28-4 26-5 25-6 30-5 45-6 26-4 26-7 17-8 4-4-1-6-4-4-9 1-34 6-19 4-33 4-37 5-34 7-17 4-23 4-25 4h-15v-20l16-3 32-5 49-5 32-3 22-7 2-3v-7l-2-2h-30l-34 2-37 3-11 2-36 4 1-7 5-13 7-11 9-11 2-1 124-1 21-1 36-5 10-3 14-9 14-10 23-5 53-12 21-3z" fill="#F9F8F3"/>
<path transform="translate(1025,881)" d="m0 0h41l8 3v4l-9 6-27 14-23 11-30 14-21 10-68 34-19 10-17 8-22 12-12 7-5 2-19-5-29-7-55-11-31-6-32-6-18-3-72-13-46-8-80-13-45-8-29-5-56-10-8-1-1-4 2-1h22l24 2 35 3 52 5 57 5 32 3 53 4 19 2 53 3 60 4 47 2 46 4 19 1h37l23-2 17-3 11-3 20-8 22-11 27-16 17-11 13-8z" fill="#8CC6BD"/>
<path transform="translate(404,764)" d="m0 0h19l50 3 31 2 16 2 3 8 11 24 8 18 7 18 6 24v23l-5 13-5 9-1 1h-22l-75-2-39-2-12-1-5-5-9-27-3-21v-13l3-22 7-21 11-24z" fill="#FDC95F"/>
<path transform="translate(349,164)" d="m0 0 36 3 84 8 36 4 38 3 6 1-1 5-5 14-5 27-1 8v33l4 18v5l-14-1-57-7-46-7-23-4-30-5-5-3-6-7-7-14-4-14-2-21v-13l1-25z" fill="#8CC6BD"/>
<path transform="translate(525,115)" d="m0 0h47l72 2 55 2 85 2 56 2 101 5 57 6 11 2v4l-170 9-55 4-43 3-47 6-23 5-7 1h-34l-35-3-30-3-39-3-43-4-48-4-9-1-71-3v-3l7-3 26-5 42-6 46-7 19-3z" fill="#8CC6BD"/>
<path transform="translate(1053,706)" d="m0 0h2v11l-1 7-11 9-11 7-10 7-13 8-15 9-16 8-9 5-9 7-4 7v4h9l15-4 21-9 16-8 27-15 7-4h4l4 11 10 23 7 21v7l-10 9-18 13-25 14-23 13-16 10-17 11-22 14-22 12-10 4-8 4-9 3v-8l2-10 1-10 2-4 15-8 20-12 11-7 4-2v-2l6-4 12-10h2v-2l6-4 6-5 5-5h2l1-7-3-3h-7l-11 4-11 6-11 8-17 14-14 12-10 9h-2v2l-5 3v-29l1-53 1-20 7-3 36-12 26-11 28-14 21-12 16-9z" fill="#FAF9F4"/>
<path transform="translate(188,742)" d="m0 0 22 3 46 6 66 6 6 1-1 4-8 7-9 12-6 13-4 17-3 22v20l4 17 5 13 6 12h-14l-33-3-48-6-21-4-4-4-4-21-5-33-2-30v-26l2-15 4-10z" fill="#FCC65F"/>
<path transform="translate(1046,1011)" d="m0 0h3l3 12v7l-12 5-21 10-23 13-24 14-18 11-11 8-10 9-5 5-6 7v5l2 2h6l22-12 15-9 17-11 15-9 27-14 19-10 10-3 1 2v29l-15 9-29 16-28 15-23 13-26 16-12 8-16 11-17 12-18 13-11 8-14 9-12 8-4 3h-2l-1-17v-21l16-12 5-4h2v-2l9-7 3-1v-2l8-6 7-5 5-5 6-5 2-6-1-3h-11l-12 5-11 7-17 14-10 9-4 1 2-13 4-16 4-12 9-7 21-12 23-13 60-30 19-9 36-19 32-16z" fill="#F9F9F3"/>
<path transform="translate(211,467)" d="m0 0 23 1 49 3 49 4 7 1-1 4-3 5-6 14-5 16-3 19-1 13v14l3 19 3 12h-13l-37-5-29-6-27-8-8-6-5-6-6-14-4-14-1-7v-22l4-16 5-12 5-8z" fill="#D0684E"/>
<path transform="translate(280,368)" d="m0 0h6l3 3 1 6-1 4v11l4 6 5 3h10l6-4 6-10 3-3h9l5 3 12 12 10 5 8 1 8-3 5-2 2-4 8-7 6-1 7 4 9 8 15 5 13 2 51 2 61 8 64 8 38 5 21 3 39 3 22 2 16 3 3 2-1 6-7 3-33 3-19 1h-27l-22-2-9-2-3-4-22-2-43-1-22-2-35-5-13-2-13-1-48-2-15-2-17-5-9-5h-5l-10 6-10 2h-10l-15-3-13-8-2-2-4 1-5 4-9 4-5 1h-10l-12-4-9-6-7-8-3-8v-15l3-8 7-8z" fill="#32050A"/>
<path transform="translate(206,994)" d="m0 0 9 1 15 5 52 14 32 8 17 4 16 3 23 5 44 9 71 15 44 9 16 4 28 6 23 5 34 7 56 11 54 10 64 12 3 3-5 8-3 5-10-1-23-4-69-14-41-9-41-8-58-12-31-6-181-36-160-32-26-5-17-4 3-3 23-4z" fill="#096D68"/>
<path transform="translate(1044,613)" d="m0 0 5 1v23l-4 4-15 10-17 11-20 12-28 15-18 8-16 5-8 4-2 2v9l5 5 10 1 16-5 20-9 16-8 23-13 19-12 16-11 4-1 1 2v12l-20 11-13 8-24 14-29 16-29 13-37 14-19 7h-3l-1-41 5-4 18-8 23-11 16-8 21-10 11-6 5-6v-8l-1-3h-10l-16 6-32 16-23 13-15 9h-3l-1-7v-39l2-6 27-5 31-6 28-6 48-11z" fill="#F8F8F3"/>
<path transform="translate(260,280)" d="m0 0 1 2-15 4-24 5-25 6-20 7-3 3 19 5 44 7 63 7 72 5 67 5 75 8 36 4 51 6 27 3 77 9 71 6 18 1v1h-40l-8-2-7-1h-20l-6 1v3h2l1 4-4 1-13-2-8 1-10-2v-2l-9-1-3-1v-2h9l6 3 9-1h9l5 1 2-1-3-2-8-1-6-2-8-1-10 2-8-3h-11l-5 1v3h16l2 3-16 2h-6l-2-1-7-3-8-1-22 1 1 3 10 2h19v2l7 1v1h-12l-97-12-63-7-30-3-32-3-57-4-38-3-29-2-62-7-6-1-2 1 1-3 3-1-3-5v-2l5-2-1-7h-10l-10 2-13-4v-2h-8l-6-4v-2l-7 1-4 1-1 3h-4l-3 3h-1v-5l9-9 8-3 14-5 4-3h3v-2l5-3h2v2h11l7 1v-2l17-3 7-1h8v-2z" fill="#32050A"/>
<path transform="translate(1068,922)" d="m0 0h3v12l-5 4-16 8-41 20-7 4 1 6 1 1 8-1 17-4 19-7 18-7 3-2h3v12l-14 8-26 14-39 20-46 24-17 9-16 8-24 13-20 12-12 8-16 12-8 7h-3v-15l1-9 10-6 14-8 16-10 34-18 14-8 11-7 4-4-1-7-2-2-11 2-20 7-29 14-19 10-17 10-3 1 1-18 5-4 32-16 82-38 27-13 24-11 14-7 48-23z" fill="#F7F8F2"/>
<path transform="translate(1315)" d="m0 0h5v1316h-6v-1294z" fill="#FDFCF7"/>
<path transform="translate(725,1015)" d="m0 0 10 1 39 8 36 8 5 2v24l-2 46-3 1-12-4-23-6-43-8-14-3-1-2v-25l6-36z" fill="#8CC6BD"/>
<path transform="translate(1050,303)" d="m0 0h3l1 25 1 12v17l-11 6-17 11-22 14-21 13-15 10-16 11-19 14-13 11-11 9-4 5h-2l-2-10v-15l9-6 13-8 15-9 26-14 13-8 14-9 13-12 6-9 2-5v-7l-1-1-9 1-14 9-12 9-19 12-24 14-22 14-10 8h-3l-3-15v-6l4-3 14-7 13-8 9-5 11-7 16-10 13-8 45-27 21-12z" fill="#F8F8F2"/>
<path transform="translate(575,988)" d="m0 0 7 1 81 14 2 1-2 9-6 24-5 31-10-1-26-6-25-6-15-3-3-2-2-12v-17l3-29z" fill="#8CC6BD"/>
<path transform="translate(254,475)" d="m0 0h22l13 4 9 5 7 7 5 9 2 8v9l-3 11-4 6-9 8-9 4-4 1h-19l-11-3-14-7-10-9-5-7-2-8 1-13 5-10 8-8 10-5z" fill="#27020E"/>
<path transform="translate(364,480)" d="m0 0h10l32 4 1 2-10 18-7 18-6 25-1 10v30l1 11-33-3-5-8-4-9-3-16v-17l3-22 7-21 8-14z" fill="#FCC75F"/>
<path transform="translate(845,812)" d="m0 0h9l4 5 3 13 2 26v24l-2 20-3 5-2 2-5 1h-125l-7-2-5-5-1-7 4-6 5-3 4-1h17l57 1h36l1-34 2-21 3-14z" fill="#27020E"/>
<path transform="translate(423,963)" d="m0 0 9 1 73 12 1 4-2 4-1 8v43l-14-1-65-13-2-1-1-9v-37l1-9z" fill="#8CC6BD"/>
<path transform="translate(74,1063)" d="m0 0 2 1 1 49 2 7 6 5 21 7 52 15 38 10 18 5 29 7 15 4 18 4 6 2 15 3 26 6 37 8 17 4 29 6 17 3 56 11 17 3 44 8 36 6 23 4 38 6 14 2 14 3 16 2v2h7l15 4 6 2v1h-20l-13-2-15-3h-8l-14-3-10-1-20-4-14-2-15-3h-7l-6-2-12-2-2-1h-5l-1-1-24-3-15-3-11-2-9-1-13-3-15-2-5-2-32-6-8-1v-2h-6l-10-2-11-3h-8l-5-2-14-2-20-6-8-1-4-1h-5l-7-2-13-2-7-2-9-2-6-2-11-2-6-2-10-2-9-3-7-1v-2l-4 1-11-3-7-2-10-2-9-3-10-2-23-6-11-3-9-2-19-6-16-4-9-4h-3v-2l-7-1-10-6v-2l-5-2-3-5-3-9 1-8 1-1-2-21 2-16z" fill="#F0F4EF"/>
<path transform="translate(546,773)" d="m0 0 30 2 5 5 9 13 9 16 8 18 6 18 3 14 1 8v17l-3 12-7 12-6 6h-13l-13-2 1-6 4-13 1-6v-22l-3-16-5-18-8-21-8-16-10-17z" fill="#D0684E"/>
<path transform="translate(684,513)" d="m0 0 37 3 1 3-8 16-5 13-5 19-2 21v19l2 18 1 8h-8l-23-4-4-3-8-20-1-5v-31l3-14 6-17 8-16 5-9z" fill="#FCC75F"/>
<path transform="translate(321,945)" d="m0 0 17 2 39 7 22 4 2 1-1 14-2 23-1 19-13-1-36-7-31-7-1-2 1-27 3-25z" fill="#FCC75F"/>
<path transform="translate(832,399)" d="m0 0 47 2 1 1v20l-2 31v45l-2 1h-33l-2-2-5-17-6-21-2-12-1-12v-10l2-18 2-7z" fill="#FCC65F"/>
<path transform="translate(358,760)" d="m0 0 25 2-1 3h-2l-2 4-14 27-6 20-2 16v17l3 15 7 23 3 9v5l-19-1-8-7-11-17-6-12-3-11v-31l2-15 5-13 8-11 9-10 4-5 5-5z" fill="#D0684E"/>
<path transform="translate(290,160)" d="m0 0h24l13 1 3 3-4 25-1 8v23l4 23 5 17 1 6-30-2-7-1-3-4-6-18-4-23v-29l4-28z" fill="#096D68"/>
<path transform="translate(405,202)" d="m0 0h6l5 4 6 9 1 3h3l6-7 6-4h8l9 7 6 6v2l5-2 7-7 7-1 6 3 6 9 7 11 4 8 1 5-3 6-6 2-9-4-7-6-3-3-3 4-4 5-5 2h-6l-5-5-8-14-4-2-7 10-7 12-3 2h-6l-6-3-3-7-2-16-1-3-2-1-4 16-5 8-6 1-6-5v-13l5-13 6-9 6-7z" fill="#240813"/>
<path transform="translate(567,422)" d="m0 0 24 1 3 3h14l4 2 6 1h30l27 4 39 3 22 2 16 3 3 2-1 6-7 3-33 3-19 1h-27l-22-2-9-2-3-4-22-2-43-1-13-1v-1l-20-3-13-2-15-2-5-2-3-3v-3h9l13 1 14 3 25 2 3 1 11 1h14l11-2v-2l-10-2h-10l-10-1-10-3-1-3z" fill="#27020D"/>
<path transform="translate(105,1019)" d="m0 0 16 2 18 4 12 3 2 3-6 27-4 25-4 31-5 1-32-8-2-3 2-34 2-50z" fill="#096D68"/>
<path transform="translate(231,927)" d="m0 0 35 7 32 6 2 1-1 11-3 25-1 16-2 1-34-7-30-6-1-1v-24l2-27z" fill="#8CC6BD"/>
<path transform="translate(757,1152)" d="m0 0 9 1 18 4 11 3 1 2 3 34v26l-3 18-1 1h-13l-19-3-8-2-2-35v-22l2-23z" fill="#096D68"/>
<path transform="translate(838,654)" d="m0 0h9l3 57 1 32-1 21-2 4h-24l-2-7-5-27-2-22-1-52 7-3z" fill="#096D68"/>
<path transform="translate(1104,1059)" d="m0 0 6 3 4 6 2 6-2 11-5 6-14 11-4 1v2l-7 4-9 6-12 7-4 1v2l-24 12-16 9-12 6-13 7h-3v2l-8 4-11 6h-2v2l-12 6-18 12-29 20-21 14-7 5-7 4-8 5-14 9-10 7-13 8-14 8-18 5h-5v-2h2v-2l3-3 11-4 13-8 33-22 28-19 16-11 20-14 26-17 15-9 17-10 68-35 24-14 19-12 16-12 4-4-1-7-4-8z" fill="#F5F6F1"/>
<path transform="translate(1055,378)" d="m0 0 3 1 2 9 1 5-15 12-32 24-19 14-13 10-19 14-18 13-18 11-11 5-5 2h-3l-1-4v-7l12-12 7-6 5-5 8-7 14-11h2v-2l13-9h2v-2l16-10 10-7 15-10 14-9 24-15z" fill="#F8F8F3"/>
<path transform="translate(434,647)" d="m0 0h17l45 3 50 4 40 2 34 4 10 3 1 1v5l-3 3-14 3-14 1h-16l-24-1-38-4-31-3-52-3-12-5-2-5 1-3 5-4z" fill="#1C101A"/>
<path transform="translate(789,663)" d="m0 0h8l1 1-1 31v29l1 22 2 11v10l-22-1-12-2-1-1-4-62-1-14v-18l4-2 20-3z" fill="#096D68"/>
<path transform="translate(620,190)" d="m0 0 27 2 1 1-1 14-2 27 2 23 4 23 6 21v1l-30-1-6-2-5-11-1-4-1-19 1-26z" fill="#8CC6BD"/>
<path transform="translate(570,185)" d="m0 0h9l18 2 2 1-1 15-7 54v27l1 6v8l-3 1-12-2-8-7-5-12-3-16v-32l4-27 4-17z" fill="#096D68"/>
<path transform="translate(221,442)" d="m0 0 21 2 69 4 36 4 33 4 29 4 68 7 33 3 71 7 64 7 26 3 22 2v1l-31 1-4-2v-1l-6-1h-15l-3 1v2l8 8h-31l-24-4h-13l-17-4-28-1-10-3-7-1h-19l-13-2-11-3-17-1v-3l3-1h16l5 2 24 1 8-1v-2l-3-1v-2l-6-1h-21l-10 1-9-2-1-2-5-1h-27l-15-3h-18l-7-3v-2l-26-1-1-3-6 1h-26l-10-3-1-1-46-1-6-2 3-1-17-1h-18-3l-6-1z" fill="#32050A"/>
<path transform="translate(168,1032)" d="m0 0 13 2 18 4 2 1v9l-2 31-1 31v20l-8-1-17-4-12-4 1-29 2-33 3-24z" fill="#8CC6BD"/>
<path transform="translate(217,770)" d="m0 0h9l19 3 26 3 12 4 5 5v11l-4 5-2 1-12-1-34-7h-4l-3 18-1 12v41l-3 3-6 1-7-3-4-8-1-5v-30l3-28 1-19 4-5z" fill="#27020E"/>
<path transform="translate(161,326)" d="m0 0 9 1 23 5 2 1-1 7-4 16-4 33 1 17 3 20 2 8v4l-11-2-9-2-4-3-6-16-4-31v-24l2-30z" fill="#FBC45E"/>
<path transform="translate(280,368)" d="m0 0h6l3 3 1 6-1 4v11l4 6 5 3h10l6-4 6-10 3-3h9l5 3 10 10 2 4 4 10v2l5 1 6 3 7 2h14l1 3-1 2h-6v2l-7 1v2h-10l-15-3-13-8-2-2-4 1-5 4-9 4-5 1h-10l-12-4-9-6-7-8-3-8v-15l3-8 7-8z" fill="#27020E"/>
<path transform="translate(562,91)" d="m0 0 18 1 5 1 5-1h8l6 1 2-1 12-1 6 2 1-1h10 2 18l5-1h155l12 1h17l23 1h13l8 1 20 1 33 3 71 8 25 2 34 5 17 4 10 7 1 2-6-1-18-4-29-5-130-13-37-2-80-3-2-1-269-1-3-2 7-2h10l14 2v-2z" fill="#F0F4EF"/>
<path transform="translate(156,631)" d="m0 0 9 1 8 2 20 3 3 2v9l-2 16-1 10-1 42h-8l-17-4-5-5-2-10v-29l-2-18-2-10z" fill="#096D68"/>
<path transform="translate(241,159)" d="m0 0h28l-1 12-2 15v30l3 23 3 15v4l-9-2-13-4-4-10-4-15-4-36v-17l2-14z" fill="#8CC6BD"/>
<path transform="translate(706,1143)" d="m0 0 10 1 17 3 3 3-3 17-3 36-1 29-10-1-10-2-3-3-3-14-1-8v-38l2-16z" fill="#8CC6BD"/>
<path transform="translate(209,640)" d="m0 0 13 1 19 3 1 1-1 12-6 42-3 22-1 1-16-1-7-2v-77z" fill="#096D68"/>
<path transform="translate(1096,670)" d="m0 0 2 3 1 4h2l1 3-4 9-8 8h-2v2h-2l-1 5-2 13 1 21 2 6 8 15 10 25 5 19 1 14 1 6-3 10-7 9-4 4h-2l-5 10v4h2v2l6 2 13 5 4 2v2l5 2 2 5 2 3-5-1-15-7-24-8-16-4v-3l14-10 10-8 10-9 5-7v-11l-3-17-8-20-16-34-3-10 2-7v-21l-1-11 17-10 4-5z" fill="#F4F7F2"/>
<path transform="translate(1112,375)" d="m0 0 3 4 1 6-5 9-11 13-1 2h-2v7l5 3 21 5 10 3 8 6 7 6 3 5 1 1 1 11-5 8h-2l-2 4-9 3-11 2-7 2-6 15-4 14-3 6-3-1v-12l4-20 3-9 1-1 28-4 8-3 2-2-1-9-6-11-7-3-27-6-36-5-4-1v-3l11-7 11-9 12-11 8-9 3-5z" fill="#F2F6F0"/>
<path transform="translate(509,95)" d="m0 0h10l5 1-1 2-6 2-27 4-55 11-16 3-13 2-71 9-49 5-6 1-24 2-17 2h-9v-2l8-1 1-3 6-2 34-3 15-2 18-1 7-2 33-3 12-2h8l18-3 20-2 13-3 9-1 12-3 13-2 6-1 5 2v-2l12-4h9l6 1 1-3z" fill="#EAF1EC"/>
<path transform="translate(529,980)" d="m0 0 14 2 11 2 1 5-4 20-3 37-11-2-7-2-2-5-3-14-1-4v-20l4-18z" fill="#FAC45E"/>
<path transform="translate(726,884)" d="m0 0h17l57 1v2l9 1-1 3-5 1-16 1-20 3-9 3 5 2 19 4-3 2-26 1h-27l-7-2-5-5-1-7 4-6 5-3z" fill="#27020E"/>
<path transform="translate(255,495)" d="m0 0h19l9 3 6 5 3 7v7l-4 6-5 4-3 1h-17l-10-4-9-6-5-8-1-6 5-5z" fill="#FBC45E"/>
<path transform="translate(262,1034)" d="m0 0 8 1 5 4 16 4v2l8-1 18 5 5 2h6l5 2h8l12 3 5 1 9 1 7 6v2h-3v-2l-6 1h-19l1 3 12 2 4 2-12-1-13-3-18-4-11-2-16-3-11-3-10-2-9-2v-1h11l-1-1-8-5-9-3v-3l3-2h5v-2z" fill="#1C101A"/>
<path transform="translate(686,1007)" d="m0 0 19 3 1 3-7 21-3 16-2 15-1 13-4 1-13-4-1-2v-10l2-17 7-37z" fill="#F9C15E"/>
<path transform="translate(258,626)" d="m0 0 18 1 76 8 18 3 9 3-1 5-5 4-2 1h-10l-6 1h-27l-24-1-2-1-25-2-20-1-4 45-1 8h-1v-13l1-15 2-17-1-3 1-5 3-2h17l7 1 18 1h18l3-2 2-7-10-3-16-3v-2h-16l-18-2z" fill="#1C101A"/>
<path transform="translate(1049,433)" d="m0 0 12 2 34 9 8 3-1 3-10 2-38 4-36 7-7 1 5-5 13-10 16-13z" fill="#D0684E"/>
<path transform="translate(192,918)" d="m0 0 11 2 8 2 1 4-3 28-2 21-9-2-6-4-3-4-5-17v-7l7-21z" fill="#FAC35E"/>
<path transform="translate(800,886)" d="m0 0h25v1l-10 1v4l10 2 10-1 6-4 5-1 2 2-2 5-5 2-1 3-9 1v3l7 2v1l-39 1h-46v-1l26-1-16-4-5-2-1-2 10-3 20-3 16-1 5-1 1-2-9-1z" fill="#32040A"/>
<path transform="translate(252,488)" d="m0 0h8l3 2 11 2v2l2 1-21 1-15 5-1 6 5 10 10 7 9 3h17l6-3 4-5 2-8h1l2 6 2 4-1 9-1 6 6-1h3l-8 7-9 4-4 1h-17l3-2-2-3-12-5-8-7-5-10-6-11v-6l8-8 2-1 2-4z" fill="#32050A"/>
<path transform="translate(1133,965)" d="m0 0h1v6l-7 7-16 8-17 9-8 6h-2v2h-2l-1 11v13l2 18 2 6h2v2l4 2 1 3-14 10-2-2-3-40-3-21v-6l10-6 25-13 20-9 7-4z" fill="#F0F4EE"/>
<path transform="translate(1097,250)" d="m0 0 6 12 1 20-3 7h-2l-1 4-6 4-3 3h-2v2l-4 4-1 4-1 16v13l5 19 5 5 7 2 1 5-16 7h-2l-4-16-6-54v-7l18-10 3-3h2l2-5 1-8z" fill="#F2F4EF"/>
<path transform="translate(264,777)" d="m0 0 13 1 8 3 3 4v11l-4 5-2 1-12-1-18-4-3-3v-2l-10 1-6-1 3-4 9-3 6-1-11-3-1-2 9-1h14z" fill="#27020E"/>
<path transform="translate(221,442)" d="m0 0 21 2 69 4 36 4 33 4 29 4 68 7 25 2v1l-24 1-10 1-9-2-1-2-5-1h-27l-15-3h-18l-7-3v-2l-26-1-1-3-6 1h-26l-10-3-1-1-46-1-6-2 3-1-17-1h-18-3l-6-1z" fill="#31050A"/>
<path transform="translate(1123,891)" d="m0 0h2l-1 5h-2l-1 4-6 5-8 6-3 5-1 10 1 9 1 3 7 3 5 2 1 3-15 6-3 2-4-1-3-36v-8l22-13z" fill="#F4F6F1"/>
<path transform="translate(444,410)" d="m0 0h44l8 2 3 2 16 1 1 1h9l8 2h14l7 2 1 3 2 1-7 2-9-1-5-2-22-2-12-3h-2-34l-17-1-7-2-1-2z" fill="#27020E"/>
<path transform="translate(288,377)" d="m0 0 1 4v11l4 6 5 3h10l6-4 3-3 3 5 5-1 6-1 4 4v4l-9 5-7 3-7 2-8 1-12-4-5-4-1-4 1-6-1-16z" fill="#32050A"/>
<path transform="translate(647,439)" d="m0 0h13l24 4 5 3v2l27 3 21 1v1l-23 2-19 1h-27l-20-2 2-2h31l2 2v-4l-3-2h-8l-4-1-18-2-3-2z" fill="#31050A"/>
<path transform="translate(171,965)" d="m0 0 3 3 2 9-2 4-16 3-23 5-25 5h-8l4-6 17-3 13-3 7-1 9-3 8-1 7-4 2-6h2z" fill="#ECF2ED"/>
<path transform="translate(218,770)" d="m0 0h8l19 3 26 3 3 2h-10l-5 1h-16l-3 1 12 3-1 2-12 3-5 3-11-1-1-7 4-8-6-3z" fill="#32050A"/>
<path transform="translate(435,339)" d="m0 0h7l6 4-1 6 20 1 8-2 2 1v2h-2v2l-10 2-8 1h-20l-3-1 1-5 2-1h-17l-1-2 6-2 4-4z" fill="#27020E"/>
<path transform="translate(602,785)" d="m0 0 2 1 8 15 5 12v2h2l4 17v2h-2l-5-6-2-6-3-1-1-2-4 1-1 4-6-13 1-3 3-1v-9l-3-7 1-5z" fill="#32050A"/>
<path transform="translate(399,413)" d="m0 0h7l10 5 7 3 13 3 9 4 2 1v2l-19 1-19-5-5-2-8-8z" fill="#27020E"/>
<path transform="translate(1116,589)" d="m0 0 3 3-3 9-10 7-19 6-5 5-4 5h-2v7h-1l-3-14v-8l1-1 14-2 18-5 6-4z" fill="#EFF4EE"/>
<path transform="translate(399,1067)" d="m0 0 6 1 5 2h9l7 2 14 2 14 5h10l9 5h6l-1 3h-10l-6-3-5 1v-2h-8l-2-2-6-2-5 1-10-1-5-2-12-2-6-3-8-1 1-3z" fill="#1C111B"/>
<path transform="translate(522,475)" d="m0 0h20l4 1 10 2h22l5 2v4l-7 2-13-1-9-2-14-2h-14l-7-3z" fill="#27020D"/>
<path transform="translate(1085,178)" d="m0 0 1 4 5 1 2 10 1 10 2 7v19l3 7v5l-3 1-1 3-3-10-3-21-4-27z" fill="#EDF2ED"/>
<path transform="translate(497,352)" d="m0 0 15 1 1 4 2 1 17 1 1 2-10 3h-12l-5-2-1-1-23-1-1-4-5 2-1-4h11z" fill="#27020E"/>
<path transform="translate(139,720)" d="m0 0 4 5 3 3 16 8 1 4-3 12-3 9-3-1-1-4-2-13-8-10-1-4h-2l-2-3v-5z" fill="#F2F5F0"/>
<path transform="translate(394,388)" d="m0 0 6 2 4 4 2 4 1 3h3l4 5 3 1v3h-7l-7-3-6-5-10-1-3-2v-5l6-5z" fill="#27020D"/>
<path transform="translate(637,92)" d="m0 0m-75-1 18 1 5 1 5-1h8l6 1 2-1 12-1 6 2 1-1h10l1 3-108 1-3-2 7-2h10l14 2v-2z" fill="#FDFCF7"/>
<path transform="translate(182,562)" d="m0 0 4 4 2 4 3 3 5 7v3l-24 4h-12l2-2 6-1v-2l11-4h2v-13z" fill="#EFF4EF"/>
<path transform="translate(1103,131)" d="m0 0 4 2 1 2v6l-6 7-8 6-8 3-3 2h-6l-2-1-1-9 19-2 5-3 4-7z" fill="#F3F6F1"/>
<path transform="translate(173,461)" d="m0 0 18 2-1 4-7 14-3 8-4 1-1-6 1-5v-9l-1-3h-2l-1-4z" fill="#EFF3EE"/>
<path transform="translate(278,1050)" d="m0 0h9l9 2 12 1-1 4 5-2v2l2-1h8l4 1v2l7 1 5 2v1h-5-2-4l-1-1-4 1-7-1 1-2-16-1-10-3-6-1-8-3z" fill="#26020E"/>
<path transform="translate(363,798)" d="m0 0h1l2 8-1 2 5-4 1 4 2 5-4 8-6-3-3 10-3 11h-1v-17l4-16z" fill="#32050A"/>
<path transform="translate(140,424)" d="m0 0 4 2 7 13 10 11v4l5 1v2l4 2-5 1-10-6-6-7-3-3v-2h-2l-4-10z" fill="#F1F5F0"/>
<path transform="translate(196,273)" d="m0 0h10l-1 2h-2v2l-22 7-20 8-6 1 2-5 8-4 11-5h9v-2h3v-2z" fill="#EAF2ED"/>
<path transform="translate(584,1079)" d="m0 0h7l28 6 11 2 12 3 28 5 13 3 13 2 15 3 2 2-11-1-47-9-40-8-28-6z" fill="#1C111B"/>
<path transform="translate(221,149)" d="m0 0h1l-1 12-1 7v37h-2l-2-9-1-8v-30l3-7z" fill="#FCFBF6"/>
<path transform="translate(230,256)" d="m0 0h2v2h3l4 6 2 2v3l-13 3h-13l2-4 8-3 4-8z" fill="#FBFAF5"/>
<path transform="translate(561,362)" d="m0 0h10l10 5 9 1 1 4h-12l-6-2-2-2h-22v-4l1-1z" fill="#27020E"/>
<path transform="translate(195,638)" d="m0 0h2l3 6v9l-2 2v11l-3 11-1 9-1 30h-1v-42l2-22 1-4z" fill="#1C111B"/>
<path transform="translate(130,621)" d="m0 0 2 1 1 24v35l-2-4-1-8 1-5-4-26 2-16z" fill="#FDFCF7"/>
<path transform="translate(856,319)" d="m0 0h12v1l-56 7-32 3-6 1h-16v-1l45-5 2-1 28-2z" fill="#2E070D"/>
<path transform="translate(145,299)" d="m0 0 2 1-1 6-3 9-2 11h-2l-1 6-2-3-1-9 4-14 4-6z" fill="#EDF0EB"/>
<path transform="translate(328,500)" d="m0 0 1 4-2 6-2 11-1 2v26l-2 4-1 15h-1l-1-7v-14l2-20 3-16z" fill="#2F060C"/>
<path transform="translate(210,638)" d="m0 0 27 4v1h-11l-17-3-1 79h-1l-1-34v-45z" fill="#1C111B"/>
<path transform="translate(660,379)" d="m0 0 8 1v2l7 1h24l7 1v2l14 2v1h-10l-45-5-13-2v-2z" fill="#30060B"/>
<path transform="translate(724,923)" d="m0 0h18l64 5 11 1v1h-29l-22-3-24-1-11-1-7-1z" fill="#30060C"/>
<path transform="translate(658,497)" d="m0 0 14 1 5 2v3l3 1-11 6-5-4-5-5-9-2 4-1z" fill="#33050A"/>
<path transform="translate(509,95)" d="m0 0h10l5 1-1 2-6 2-8 1h-15l2-4z" fill="#EEF3EE"/>
<path transform="translate(143,593)" d="m0 0h6l-2 4-6 7-4 8-3 7-2-4v-7l2-4h2l2-4h2l1-5z" fill="#E9F1EC"/>
<path transform="translate(256,475)" d="m0 0h20l13 4 9 5 7 7-1 2-8-7-9-4-10-2-6-2v-2h-15z" fill="#30060B"/>
<path transform="translate(769,939)" d="m0 0 19 2h9l9 2-3 2-18-1h-6l-1 2h-7l-3-5z" fill="#33050A"/>
<path transform="translate(613,358)" d="m0 0h11l5 2 1 3-5 3-13-1-2-4z" fill="#27020E"/>
<path transform="translate(78,1017)" d="m0 0 2 1v24l-2 3h-2l-1-7v-12z" fill="#FBFAF6"/>
<path transform="translate(1016,380)" d="m0 0h2l-1 5-6 3-13 9-6 2h-2v-3l20-12z" fill="#33080D"/>
<path transform="translate(163,322)" d="m0 0 9 1 3 1 2 3 11 3v1l-8-1-19-4-1 17h-2l1-17z" fill="#30060B"/>
<path transform="translate(1023,745)" d="m0 0h3l-2 4-5 3h-2v2h-2v2l-7 3-5 4-6 1 2-4 17-10z" fill="#3C0D10"/>
<path transform="translate(657,919)" d="m0 0h16l50 3v1h-16l-39-1-11-2z" fill="#30060C"/>
<path transform="translate(1077,646)" d="m0 0 4 2v2h2l3 4v7h-7l-2-1z" fill="#FCFBF6"/>
<path transform="translate(224,887)" d="m0 0 17 1 42 5v1h-25l-2-2-20-2-11-1z" fill="#32050A"/>
<path transform="translate(1096,566)" d="m0 0 5 1v2h2l3 7v3h-10z" fill="#F8F9F4"/>
<path transform="translate(349,463)" d="m0 0 6 1 4 5-2 3-7 1-7-5 2-4 4 1z" fill="#33050A"/>
<path transform="translate(654,431)" d="m0 0h7l23 3 27 2v1h-22l-19-2-14-1-2-1z" fill="#2F060C"/>
<path transform="translate(308,912)" d="m0 0h11l13 2 15 1v2l-23-1h-24l1-2z" fill="#153136"/>
<path transform="translate(615,91)" d="m0 0 8 1h2 10l1 3h-35l3-2 2-1z" fill="#FDFCF7"/>
<path transform="translate(569,444)" d="m0 0h63l2 3-22-1-43-1z" fill="#280A11"/>
<path transform="translate(694,490)" d="m0 0h9l32 3 12 1v1h-15l-30-1-2-2-6-1z" fill="#31050B"/>
<path transform="translate(221,442)" d="m0 0 21 2 18 1 7 1v1h-35-3l-6-1z" fill="#30060C"/>
<path transform="translate(562,367)" d="m0 0h9l8 4v2l-27-3 1-2z" fill="#30060C"/>
<path transform="translate(819,930)" d="m0 0 27 1 20 1v1l-29 1-11-1-7-2z" fill="#31050A"/>
<path transform="translate(1037,456)" d="m0 0h5l-3 1v2l-25 5-3-1 7-5 5-1h10z" fill="#ECA762"/>
<path transform="translate(1074,170)" d="m0 0h6l2 2v6l-9 2-1-5z" fill="#EBF2ED"/>
<path transform="translate(328,331)" d="m0 0h11l1 5-3 2h-6l-6-3 1-3z" fill="#27020E"/>
<path transform="translate(752,392)" d="m0 0h32l10 2v1h-20l-22-2z" fill="#30060B"/>
<path transform="translate(220,997)" d="m0 0 9 1 20 5 8 3 8 2 2 2-7-1-40-11z" fill="#1C111B"/>
<path transform="translate(561,934)" d="m0 0 28 2 4 3-16-1-24-2v-1z" fill="#124042"/>
<path transform="translate(383,762)" d="m0 0 2 1-1 4h-2l-1 5-2 4-6 5-3 3 2-6 6-10 2-3h2z" fill="#31060B"/>
<path transform="translate(821,386)" d="m0 0 9 1v3l-8 4-5-1-1-5z" fill="#33050A"/>
<path transform="translate(770,382)" d="m0 0h10l2 1-1 3-9 2-9-2 3-2z" fill="#33050A"/>
<path transform="translate(611,376)" d="m0 0h26v2l7 1v1h-12l-21-3z" fill="#30060B"/>
<path transform="translate(234,258)" d="m0 0 4 5 3 3v3l-13 3h-5l4-2 2-3 5-1z" fill="#BCD7D3"/>
<path transform="translate(486,360)" d="m0 0h19l2 2 4 1v2l-25-3z" fill="#30060B"/>
<path transform="translate(276,340)" d="m0 0h15l4 4h-16l-6-2z" fill="#27020E"/>
<path transform="translate(260,280)" d="m0 0 1 2-15 4-18 3 1-3 10-2h10v-2z" fill="#2F070C"/>
<path transform="translate(532,92)" d="m0 0h10l7 2-2 2h-19l-3-2z" fill="#FDFCF7"/>
<path transform="translate(930,363)" d="m0 0h2v2l-2 2 4 2 1 4-5 3-4-1v-8z" fill="#36090E"/>
<path transform="translate(782,927)" d="m0 0h11l24 2v1h-29l-6-1z" fill="#31050A"/>
<path transform="translate(544,352)" d="m0 0 9 1 4 4-10 2-3-1-2-2v-3z" fill="#27020E"/>
<path transform="translate(691,510)" d="m0 0 13 2v2l3 1h-11l-12-2v-1z" fill="#31050A"/>
<path transform="translate(615,433)" d="m0 0 5 1-2 4-9 1-5-1 2-4h7z" fill="#33050A"/>
<path transform="translate(646,1129)" d="m0 0h8l13 3 19 4v1l-12-1-9-2-17-3z" fill="#1C111B"/>
<path transform="translate(756,1270)" d="m0 0h14l6 2-2 2h-12l-6-2z" fill="#FDFCF7"/>
<path transform="translate(256,471)" d="m0 0 26 2v2l-13-1h-17v-2z" fill="#FECB60"/>
<path transform="translate(710,1262)" d="m0 0h15l2 1v2l-4 2-10-2z" fill="#F9F8F4"/>
<path transform="translate(184,949)" d="m0 0 2 3 5 15 5 4 7 3-3 1-9-3-3-4-4-15z" fill="#30060B"/>
<path transform="translate(906,366)" d="m0 0 3 1-7 8-6 5-2-1 7-9z" fill="#32040A"/>
<path transform="translate(241,336)" d="m0 0 13 1v2l2 1-14 1-4-4z" fill="#27030E"/>
<path transform="translate(988,309)" d="m0 0h3l-1 3-12 7-1-2h2v-5z" fill="#FAEDDA"/>
<path transform="translate(628,1114)" d="m0 0 11 2-2 1v2l-7 1h-5v-4z" fill="#1C101A"/>
<path transform="translate(761,625)" d="m0 0h3v2l-12 2h-18v-1z" fill="#401719"/>
<path transform="translate(993,1078)" d="m0 0 4 1-5 4-11 7-3-1 5-4 7-5z" fill="#32080D"/>
<path transform="translate(328,500)" d="m0 0 1 4-2 6-2 11-3 8-1-2 3-16z" fill="#2E070D"/>
<path transform="translate(833,396)" d="m0 0 5 1 23 2v1h-29l-2 1 1-3z" fill="#2E070D"/>
<path transform="translate(224,887)" d="m0 0 17 1 16 2v1l-27-1-6-2z" fill="#30060B"/>
<path transform="translate(1009,754)" d="m0 0 2 1-6 7-4 2-4-1 4-4z" fill="#4C1616"/>
<path transform="translate(244,791)" d="m0 0 5 1 2 4-20-2v-2h10z" fill="#31060B"/>
<path transform="translate(657,533)" d="m0 0 2 2-3 9h-2l-1 2 2 1-2 5h-2l1-12 3-3z" fill="#33050A"/>
<path transform="translate(631,939)" d="m0 0 11 1 7 1v1h-13l-19-1v-1z" fill="#10494A"/>
<path transform="translate(209,807)" d="m0 0 3 1 1 8-2 3h-2l-1 3v-8z" fill="#31050A"/>
<path transform="translate(1095,930)" d="m0 0 2 1 1 18 1 2 3 2-5 1-1-1z" fill="#B2D3CE"/>
<path transform="translate(805,324)" d="m0 0h17l-2 2-8 1h-9z" fill="#30060B"/>
<path transform="translate(519,931)" d="m0 0 14 1 4 2h-13l-13-1v-1z" fill="#104949"/>
<path transform="translate(171,841)" d="m0 0 2 2 2 4v10l-2 2-2-7v-2l2-1-2-1z" fill="#33050A"/>
<path transform="translate(896,401)" d="m0 0h1l2 14-4-2-1-7z" fill="#31050A"/>
<path transform="translate(587,92)" d="m0 0h11l3 3h-16z" fill="#FCFBF6"/>
<path transform="translate(654,431)" d="m0 0h7l10 2-1 2-14-1-2-1z" fill="#31050A"/>
<path transform="translate(358,637)" d="m0 0h8l1 5-7-1v-2h-6z" fill="#250410"/>
<path transform="translate(211,465)" d="m0 0 9 1v1l-9 1-5 8-3 5-1-2 6-12z" fill="#2F070C"/>
<path transform="translate(807,899)" d="m0 0 4 1-1 4h-7l-2-2z" fill="#27020E"/>
<path transform="translate(536,1096)" d="m0 0 7 2 1 2-8 1-3-2v-2z" fill="#1C111B"/>
<path transform="translate(135,408)" d="m0 0h2l2 5 1 8h-3l-2-6z" fill="#FCFBF6"/>
<path transform="translate(598,1106)" d="m0 0 1 2 4 1 1 2-9 1-2-3z" fill="#1D0F19"/>
<path transform="translate(1037,456)" d="m0 0h5l-3 1v2l-5 1h-8l-1-2z" fill="#EEAA5A"/>
<path transform="translate(935,1097)" d="m0 0v3l-12 12v-3l8-9z" fill="#40161B"/>
<path transform="translate(745,379)" d="m0 0 10 2v2l-4 1-8-2v-2z" fill="#33050A"/>
<path transform="translate(174,969)" d="m0 0 2 1 4 9-1 1h-5l1-4z" fill="#C3DAD6"/>
<path transform="translate(1073,425)" d="m0 0h11l7 1v1l-16 1-3-2z" fill="#35171A"/>
<path transform="translate(236,284)" d="m0 0 6 2v1l-14 2 1-3z" fill="#2D080E"/>
<path transform="translate(617,938)" d="m0 0m-7 0h6l1 2-4 1-17-1v-1z" fill="#114244"/>
<path transform="translate(435,660)" d="m0 0h8l4 2v2l-8-1-4-1z" fill="#27020E"/>
<path transform="translate(173,499)" d="m0 0 2 1v9h-3l-1-7z" fill="#FDFCF7"/>
<path transform="translate(238,481)" d="m0 0 2 1-6 5-5 6-2-1 7-8z" fill="#30060B"/>
<path transform="translate(1090,447)" d="m0 0h13l-1 3h-7l-5-2z" fill="#F4B75C"/>
<path transform="translate(143,357)" d="m0 0h2l-2 10h-2l-1 4-1-3 3-9z" fill="#33050A"/>
<path transform="translate(526,95)" d="m0 0 13 1-2 2h-13l2-1z" fill="#C9DBD8"/>
<path transform="translate(97,992)" d="m0 0 9 2v1l-13 1z" fill="#DEE3DC"/>
<path transform="translate(1072,854)" d="m0 0 2 1-7 8-4-1 5-5z" fill="#D2D1C9"/>
<path transform="translate(1091,661)" d="m0 0 4 4v5l-3-2v-2h-2l-1-4z" fill="#E8EFEB"/>
<path transform="translate(913,867)" d="m0 0 2 1-11 11-2-2 3-1v-2z" fill="#41181B"/>
<path transform="translate(976,772)" d="m0 0h2l-1 4-7 2v-3z" fill="#481416"/>
<path transform="translate(669,623)" d="m0 0 5 5 10 2v1l-13-1-2-2z" fill="#32050A"/>
<path transform="translate(723,378)" d="m0 0 7 1v2l-14 1 4-3z" fill="#33050A"/>
</svg>
